<?xml version="1.0" encoding="UTF-8" standalone="no"?>
<svg
   xmlns:dc="http://purl.org/dc/elements/1.1/"
   xmlns:cc="http://creativecommons.org/ns#"
   xmlns:rdf="http://www.w3.org/1999/02/22-rdf-syntax-ns#"
   xmlns:svg="http://www.w3.org/2000/svg"
   xmlns="http://www.w3.org/2000/svg"
   xmlns:xlink="http://www.w3.org/1999/xlink"
   xmlns:sodipodi="http://sodipodi.sourceforge.net/DTD/sodipodi-0.dtd"
   xmlns:inkscape="http://www.inkscape.org/namespaces/inkscape"
   width="128"
   height="128"
   viewBox="0 0 33.866666 33.866668"
   version="1.1"
   id="svg8"
   inkscape:version="1.0.1 (3bc2e813f5, 2020-09-07)"
   sodipodi:docname="inktools.svg">
  <defs
     id="defs2">
    <linearGradient
       inkscape:collect="always"
       id="linearGradient908">
      <stop
         style="stop-color:#fefefe;stop-opacity:1"
         offset="0"
         id="stop904" />
      <stop
         style="stop-color:#7f7f7c;stop-opacity:0"
         offset="1"
         id="stop906" />
    </linearGradient>
    <radialGradient
       inkscape:collect="always"
       xlink:href="#linearGradient908"
       id="radialGradient910"
       cx="18.121548"
       cy="5.1440749"
       fx="18.121548"
       fy="5.1440749"
       r="3.8364584"
       gradientTransform="matrix(0.69248026,0.02332759,-0.03697476,1.0975967,8.6533814,-1.4127559)"
       gradientUnits="userSpaceOnUse" />
    <radialGradient
       inkscape:collect="always"
       xlink:href="#linearGradient908"
       id="radialGradient879"
       gradientUnits="userSpaceOnUse"
       gradientTransform="matrix(1.0766649,0.03626962,-0.05748817,1.706538,-1.4696468,-3.9194853)"
       cx="18.121548"
       cy="5.1440749"
       fx="18.121548"
       fy="5.1440749"
       r="3.8364584" />
    <radialGradient
       inkscape:collect="always"
       xlink:href="#linearGradient908"
       id="radialGradient903"
       gradientUnits="userSpaceOnUse"
       gradientTransform="matrix(0.69248026,0.02332759,-0.03697476,1.0975967,10.552929,-7.0157816)"
       cx="18.121548"
       cy="5.1440749"
       fx="18.121548"
       fy="5.1440749"
       r="3.8364584" />
  </defs>
  <sodipodi:namedview
     id="base"
     pagecolor="#ffffff"
     bordercolor="#666666"
     borderopacity="1.0"
     inkscape:pageopacity="0.0"
     inkscape:pageshadow="2"
     inkscape:zoom="6.8671875"
     inkscape:cx="55.178478"
     inkscape:cy="62.445311"
     inkscape:document-units="px"
     inkscape:current-layer="layer3"
     inkscape:document-rotation="0"
     showgrid="true"
     units="px"
     inkscape:snap-bbox="true"
     inkscape:bbox-paths="true"
     inkscape:bbox-nodes="true"
     inkscape:snap-bbox-edge-midpoints="true"
     inkscape:snap-bbox-midpoints="true"
     inkscape:snap-object-midpoints="true"
     inkscape:snap-center="true"
     inkscape:window-width="1920"
     inkscape:window-height="1051"
     inkscape:window-x="1920"
     inkscape:window-y="29"
     inkscape:window-maximized="1">
    <inkscape:grid
       type="xygrid"
       id="grid833"
       empspacing="8" />
  </sodipodi:namedview>
  <metadata
     id="metadata5">
    <rdf:RDF>
      <cc:Work
         rdf:about="">
        <dc:format>image/svg+xml</dc:format>
        <dc:type
           rdf:resource="http://purl.org/dc/dcmitype/StillImage" />
        <dc:title />
      </cc:Work>
    </rdf:RDF>
  </metadata>
  <g
     inkscape:label="blue"
     inkscape:groupmode="layer"
     id="layer1"
     style="display:inline">
    <ellipse
       style="display:inline;fill:#101010;fill-opacity:0.491687;stroke:none;stroke-width:0.529167;stroke-linecap:round;stroke-linejoin:round;paint-order:markers fill stroke"
       id="path903-6"
       cx="11.641666"
       cy="24.870834"
       rx="7.8052082"
       ry="1.3229166" />
    <g
       id="g877"
       transform="matrix(0.64317158,0,0,0.64317158,0.75061705,4.8942091)">
      <path
         id="path857"
         style="fill:#03006e;fill-opacity:1;stroke:none;stroke-width:1.05833;stroke-linecap:round;stroke-miterlimit:4;stroke-dasharray:none;stroke-opacity:1;paint-order:markers stroke fill"
         d="m 3.7020998,15.345833 a 14.816668,10.583335 0 0 0 -1.5854331,4.7625 14.816668,10.583335 0 0 0 6.6052818,8.809281 C 8.5693837,29.010264 8.4666669,29.17649 8.4666669,29.36875 v 0.79375 c 0,0.293158 0.2360081,0.529166 0.5291667,0.529166 h 7.8822064 0.05529 7.9375 c 0.293158,0 0.529167,-0.236008 0.529167,-0.529166 v -0.79375 c 0,-0.19226 -0.102717,-0.358487 -0.255282,-0.451136 a 14.816668,10.583335 0 0 0 6.605282,-8.809281 14.816668,10.583335 0 0 0 -1.585434,-4.7625 z" />
      <ellipse
         style="opacity:1;fill:#0700c1;fill-opacity:1;fill-rule:nonzero;stroke:none;stroke-width:0.995037;stroke-linecap:round;stroke-linejoin:round;stroke-miterlimit:4;stroke-dasharray:none;stroke-dashoffset:0;stroke-opacity:1;paint-order:stroke fill markers"
         id="ellipse859"
         cx="16.933332"
         cy="15.345835"
         rx="13.229167"
         ry="1.1906251" />
      <ellipse
         style="opacity:1;fill:url(#radialGradient879);fill-opacity:1;fill-rule:nonzero;stroke:none;stroke-width:1;stroke-linecap:round;stroke-linejoin:round;stroke-miterlimit:4;stroke-dasharray:none;stroke-dashoffset:0;stroke-opacity:1;paint-order:stroke fill markers"
         id="ellipse861"
         cx="17.745464"
         cy="5.5163345"
         rx="3.8364584"
         ry="6.8791666"
         transform="rotate(44.707177)" />
      <path
         id="path863"
         style="opacity:1;fill:none;fill-opacity:1;fill-rule:nonzero;stroke:#404040;stroke-width:0.529167;stroke-linecap:round;stroke-linejoin:round;stroke-miterlimit:4;stroke-dasharray:none;stroke-dashoffset:0;stroke-opacity:1;paint-order:stroke fill markers"
         d="m 10.583335,10.583332 c 0,-0.5845005 2.842991,-1.0583325 6.349999,-1.0583325 3.507008,-10e-8 6.35,0.4738319 6.35,1.0583325"
         sodipodi:nodetypes="csc" />
      <ellipse
         style="opacity:1;fill:#02001f;fill-opacity:1;fill-rule:nonzero;stroke:none;stroke-width:0.796029;stroke-linecap:round;stroke-linejoin:round;stroke-miterlimit:4;stroke-dasharray:none;stroke-dashoffset:0;stroke-opacity:1;paint-order:stroke fill markers"
         id="ellipse865"
         cx="16.933332"
         cy="30.427084"
         rx="8.4666672"
         ry="1.1906251" />
      <path
         id="path867"
         style="opacity:1;fill:#0101c0;fill-opacity:0.195013;fill-rule:nonzero;stroke:#000000;stroke-width:0.529167;stroke-linecap:round;stroke-linejoin:round;stroke-miterlimit:4;stroke-dasharray:none;stroke-dashoffset:0;stroke-opacity:1;paint-order:markers fill stroke"
         d="m 10.583334,7.4083334 v 3.1377926 a 14.816668,10.583335 0 0 0 -6.8812342,4.799707 14.816668,10.583335 0 0 0 -0.079582,0.114205 14.816668,10.583335 0 0 0 -0.077514,0.115238 14.816668,10.583335 0 0 0 -0.011886,0.01757 14.816668,10.583335 0 0 0 -0.063562,0.09767 14.816668,10.583335 0 0 0 -0.1452108,0.233061 14.816668,10.583335 0 0 0 -0.011369,0.0186 14.816668,10.583335 0 0 0 -0.058394,0.09922 14.816668,10.583335 0 0 0 -0.067179,0.117823 14.816668,10.583335 0 0 0 -0.066146,0.118856 14.816668,10.583335 0 0 0 -0.063045,0.117822 14.816668,10.583335 0 0 0 -5.167e-4,0.0015 14.816668,10.583335 0 0 0 -0.00982,0.01809 14.816668,10.583335 0 0 0 -0.051676,0.101286 14.816668,10.583335 0 0 0 -0.1173057,0.241329 14.816668,10.583335 0 0 0 -0.00878,0.0186 14.816668,10.583335 0 0 0 -0.046509,0.10232 14.816668,10.583335 0 0 0 -0.00878,0.01912 14.816668,10.583335 0 0 0 -0.044959,0.102836 14.816668,10.583335 0 0 0 -0.051159,0.121956 14.816668,10.583335 0 0 0 -0.049609,0.122474 14.816668,10.583335 0 0 0 -0.047026,0.122989 14.816668,10.583335 0 0 0 -0.03514,0.0956 14.816668,10.583335 0 0 0 -0.014469,0.04031 14.816668,10.583335 0 0 0 -0.00258,0.0067 14.816668,10.583335 0 0 0 -0.036174,0.104903 14.816668,10.583335 0 0 0 -0.027388,0.08113 14.816668,10.583335 0 0 0 -0.018604,0.05684 14.816668,10.583335 0 0 0 -0.00155,0.0057 14.816668,10.583335 0 0 0 -0.032556,0.104903 14.816668,10.583335 0 0 0 -0.03669,0.125057 14.816668,10.583335 0 0 0 -0.034623,0.125057 14.816668,10.583335 0 0 0 -0.032556,0.125574 14.816668,10.583335 0 0 0 -0.029456,0.122473 14.816668,10.583335 0 0 0 -0.00155,0.0047 14.816668,10.583335 0 0 0 -0.00413,0.01809 14.816668,10.583335 0 0 0 -0.050126,0.232545 14.816668,10.583335 0 0 0 -0.020154,0.105419 14.816668,10.583335 0 0 0 -0.00517,0.02584 14.816668,10.583335 0 0 0 -0.00258,0.01447 14.816668,10.583335 0 0 0 -0.018087,0.10697 14.816668,10.583335 0 0 0 -0.019637,0.127124 14.816668,10.583335 0 0 0 -0.011886,0.0832 14.816668,10.583335 0 0 0 -0.00775,0.05581 14.816668,10.583335 0 0 0 -0.00465,0.03876 14.816668,10.583335 0 0 0 -0.011369,0.09612 14.816668,10.583335 0 0 0 -0.012919,0.127124 14.816668,10.583335 0 0 0 -0.0031,0.03721 14.816668,10.583335 0 0 0 -0.015503,0.197404 14.816668,10.583335 0 0 0 -0.00413,0.07183 14.816668,10.583335 0 0 0 -0.00362,0.07545 14.816668,10.583335 0 0 0 -0.00413,0.120406 14.816668,10.583335 0 0 0 -0.00103,0.03669 14.816668,10.583335 0 0 0 -0.00155,0.09819 14.816668,10.583335 0 0 0 -5.168e-4,0.07235 14.816668,10.583335 0 0 0 0.1302246,1.399398 14.816668,10.583335 0 0 0 0.05116,0.252181 14.816668,10.583335 0 0 0 0.028939,0.12609 14.816668,10.583335 0 0 0 0.064595,0.251148 14.816668,10.583335 0 0 0 1.098641,2.42104 14.816668,10.583335 0 0 0 0.075965,0.115239 14.816668,10.583335 0 0 0 0.4966105,0.678511 14.816668,10.583335 0 0 0 0.1808673,0.219626 14.816668,10.583335 0 0 0 1.9440676,1.823661 14.816668,10.583335 0 0 0 5.168e-4,0 14.816668,10.583335 0 0 0 2.4479126,1.481046 14.816668,10.583335 0 0 0 0.085783,0.04134 c -0.1525648,0.09265 -0.2552816,0.258876 -0.2552816,0.451136 v 0.79375 c 0,0.0584 0.01162,0.113429 0.028939,0.16588 a 8.4666674,1.1906251 0 0 0 -0.028939,0.0987 8.4666674,1.1906251 0 0 0 8.4666674,1.190625 8.4666674,1.1906251 0 0 0 8.466667,-1.190625 8.4666674,1.1906251 0 0 0 -0.02894,-0.09818 c 0.01742,-0.05259 0.02894,-0.107823 0.02894,-0.166399 v -0.79375 c 0,-0.19226 -0.102717,-0.358487 -0.255282,-0.451136 a 14.816668,10.583335 0 0 0 0.0098,-0.0047 14.816668,10.583335 0 0 0 0.130224,-0.06304 14.816668,10.583335 0 0 0 0.0083,-0.0036 14.816668,10.583335 0 0 0 0.0041,-0.0021 14.816668,10.583335 0 0 0 0.142627,-0.0708 14.816668,10.583335 0 0 0 0.134358,-0.06821 14.816668,10.583335 0 0 0 0.01137,-0.0057 14.816668,10.583335 0 0 0 0.05736,-0.02945 14.816668,10.583335 0 0 0 0.08682,-0.04548 14.816668,10.583335 0 0 0 0.01292,-0.0067 14.816668,10.583335 0 0 0 0.115756,-0.06201 14.816668,10.583335 0 0 0 0.01447,-0.0077 14.816668,10.583335 0 0 0 0.05633,-0.03049 14.816668,10.583335 0 0 0 0.08527,-0.04702 14.816668,10.583335 0 0 0 0.116271,-0.06511 14.816668,10.583335 0 0 0 0.02429,-0.01344 14.816668,10.583335 0 0 0 0.05529,-0.03152 14.816668,10.583335 0 0 0 0.08372,-0.04857 14.816668,10.583335 0 0 0 0.113171,-0.06666 14.816668,10.583335 0 0 0 0.0248,-0.01447 14.816668,10.583335 0 0 0 0.05426,-0.03256 14.816668,10.583335 0 0 0 0.08217,-0.05013 14.816668,10.583335 0 0 0 0.11317,-0.06976 14.816668,10.583335 0 0 0 0.0217,-0.01344 14.816668,10.583335 0 0 0 0.05323,-0.03359 14.816668,10.583335 0 0 0 0.0801,-0.05116 14.816668,10.583335 0 0 0 0.05271,-0.03411 14.816668,10.583335 0 0 0 0.01137,-0.0072 14.816668,10.583335 0 0 0 0.101801,-0.06718 14.816668,10.583335 0 0 0 0.0186,-0.01188 14.816668,10.583335 0 0 0 0.07855,-0.05271 14.816668,10.583335 0 0 0 0.128156,-0.08733 14.816668,10.583335 0 0 0 0.001,-5.18e-4 14.816668,10.583335 0 0 0 5.16e-4,-5.16e-4 14.816668,10.583335 0 0 0 0.127124,-0.08888 14.816668,10.583335 0 0 0 0.115755,-0.08216 14.816668,10.583335 0 0 0 0.01033,-0.0078 14.816668,10.583335 0 0 0 0.0052,-0.0036 14.816668,10.583335 0 0 0 0.119375,-0.08785 14.816668,10.583335 0 0 0 0.09353,-0.07028 14.816668,10.583335 0 0 0 0.02997,-0.02222 14.816668,10.583335 0 0 0 0.04858,-0.03721 14.816668,10.583335 0 0 0 0.07286,-0.05633 14.816668,10.583335 0 0 0 0.0021,-0.0015 14.816668,10.583335 0 0 0 0.108522,-0.08578 14.816668,10.583335 0 0 0 0.0093,-0.0072 14.816668,10.583335 0 0 0 0.04703,-0.03773 14.816668,10.583335 0 0 0 0.07131,-0.05788 14.816668,10.583335 0 0 0 0.04651,-0.03824 14.816668,10.583335 0 0 0 0.07028,-0.05839 14.816668,10.583335 0 0 0 10e-4,-0.001 14.816668,10.583335 0 0 0 0.09973,-0.08423 14.816668,10.583335 0 0 0 0.01395,-0.01189 14.816668,10.583335 0 0 0 0.04547,-0.03927 14.816668,10.583335 0 0 0 0.06821,-0.05943 14.816668,10.583335 0 0 0 0.04444,-0.03927 14.816668,10.583335 0 0 0 0.06718,-0.06046 14.816668,10.583335 0 0 0 0.04393,-0.03979 14.816668,10.583335 0 0 0 0.06615,-0.06046 14.816668,10.583335 0 0 0 0.04341,-0.04031 14.816668,10.583335 0 0 0 0.01499,-0.01395 14.816668,10.583335 0 0 0 0.0925,-0.08785 14.816668,10.583335 0 0 0 0.105936,-0.102836 14.816668,10.583335 0 0 0 0.06304,-0.06201 14.816668,10.583335 0 0 0 0.04134,-0.04134 14.816668,10.583335 0 0 0 0.06201,-0.06304 14.816668,10.583335 0 0 0 0.04031,-0.04134 14.816668,10.583335 0 0 0 0.06098,-0.06356 14.816668,10.583335 0 0 0 0.03979,-0.04186 14.816668,10.583335 0 0 0 0.05994,-0.06408 14.816668,10.583335 0 0 0 0.01085,-0.01137 14.816668,10.583335 0 0 0 0.0832,-0.09147 14.816668,10.583335 0 0 0 0.0036,-0.0041 14.816668,10.583335 0 0 0 0.03824,-0.04237 14.816668,10.583335 0 0 0 0.05788,-0.06511 14.816668,10.583335 0 0 0 0.03772,-0.04289 14.816668,10.583335 0 0 0 0.05633,-0.06511 14.816668,10.583335 0 0 0 0.0098,-0.01188 14.816668,10.583335 0 0 0 0.07648,-0.09043 14.816668,10.583335 0 0 0 0.0062,-0.0072 14.816668,10.583335 0 0 0 0.0041,-0.0052 14.816668,10.583335 0 0 0 0.0863,-0.104903 14.816668,10.583335 0 0 0 0.08837,-0.110588 14.816668,10.583335 0 0 0 0.08682,-0.111621 14.816668,10.583335 0 0 0 0.03411,-0.04444 14.816668,10.583335 0 0 0 0.01861,-0.02481 14.816668,10.583335 0 0 0 0.05581,-0.07441 14.816668,10.583335 0 0 0 0.0098,-0.01343 14.816668,10.583335 0 0 0 0.04961,-0.06821 14.816668,10.583335 0 0 0 0.0047,-0.0067 14.816668,10.583335 0 0 0 0.0646,-0.09043 14.816668,10.583335 0 0 0 0.01188,-0.01654 14.816668,10.583335 0 0 0 0.03152,-0.04496 14.816668,10.583335 0 0 0 0.04754,-0.06925 14.816668,10.583335 0 0 0 0.0067,-0.0098 14.816668,10.583335 0 0 0 0.06718,-0.100252 14.816668,10.583335 0 0 0 0.0031,-0.0047 14.816668,10.583335 0 0 0 0.0021,-0.0031 14.816668,10.583335 0 0 0 0.05633,-0.0863 14.816668,10.583335 0 0 0 0.01705,-0.02636 14.816668,10.583335 0 0 0 0.02946,-0.04651 14.816668,10.583335 0 0 0 0.0072,-0.01189 14.816668,10.583335 0 0 0 0.05891,-0.09405 14.816668,10.583335 0 0 0 0.0062,-0.01034 14.816668,10.583335 0 0 0 0.04289,-0.0708 14.816668,10.583335 0 0 0 0.0072,-0.0124 14.816668,10.583335 0 0 0 0.0584,-0.0987 14.816668,10.583335 0 0 0 0.0036,-0.0062 14.816668,10.583335 0 0 0 0.0021,-0.0036 14.816668,10.583335 0 0 0 0.04599,-0.08061 14.816668,10.583335 0 0 0 0.04186,-0.07441 14.816668,10.583335 0 0 0 0.0036,-0.0067 14.816668,10.583335 0 0 0 0.03927,-0.07183 14.816668,10.583335 0 0 0 0.02532,-0.04703 14.816668,10.583335 0 0 0 0.03824,-0.07235 14.816668,10.583335 0 0 0 0.02429,-0.04702 14.816668,10.583335 0 0 0 0.03669,-0.07235 14.816668,10.583335 0 0 0 0.02377,-0.04806 14.816668,10.583335 0 0 0 0.03566,-0.07235 14.816668,10.583335 0 0 0 0.0083,-0.01757 14.816668,10.583335 0 0 0 0.03979,-0.08372 14.816668,10.583335 0 0 0 0.0093,-0.01964 14.816668,10.583335 0 0 0 0.02222,-0.04806 14.816668,10.583335 0 0 0 0.03307,-0.07338 14.816668,10.583335 0 0 0 0.02118,-0.04806 14.816668,10.583335 0 0 0 0.03204,-0.0739 14.816668,10.583335 0 0 0 0.0031,-0.0078 14.816668,10.583335 0 0 0 0.03824,-0.09043 14.816668,10.583335 0 0 0 0.0098,-0.02377 14.816668,10.583335 0 0 0 0.0077,-0.01912 14.816668,10.583335 0 0 0 0.03669,-0.0925 14.816668,10.583335 0 0 0 0.0041,-0.01085 14.816668,10.583335 0 0 0 0.0026,-0.0062 14.816668,10.583335 0 0 0 0.04031,-0.105937 14.816668,10.583335 0 0 0 0.0041,-0.01137 14.816668,10.583335 0 0 0 0.0031,-0.0078 14.816668,10.583335 0 0 0 0.04031,-0.112138 14.816668,10.583335 0 0 0 0.0016,-0.0036 14.816668,10.583335 0 0 0 5.16e-4,-0.0021 14.816668,10.583335 0 0 0 0.03514,-0.100252 14.816668,10.583335 0 0 0 0.0072,-0.02119 14.816668,10.583335 0 0 0 0.01654,-0.04961 14.816668,10.583335 0 0 0 0.02429,-0.07493 14.816668,10.583335 0 0 0 0.0155,-0.04909 14.816668,10.583335 0 0 0 0.0072,-0.02377 14.816668,10.583335 0 0 0 0.02894,-0.09612 14.816668,10.583335 0 0 0 0.0015,-0.0052 14.816668,10.583335 0 0 0 0.02171,-0.07493 14.816668,10.583335 0 0 0 0.01395,-0.04961 14.816668,10.583335 0 0 0 0.0088,-0.03307 14.816668,10.583335 0 0 0 0.01964,-0.0739 14.816668,10.583335 0 0 0 0.0052,-0.0186 14.816668,10.583335 0 0 0 0.01912,-0.07545 14.816668,10.583335 0 0 0 0.0124,-0.05013 14.816668,10.583335 0 0 0 0.01809,-0.07597 14.816668,10.583335 0 0 0 0.0047,-0.02015 14.816668,10.583335 0 0 0 0.01705,-0.077 14.816668,10.583335 0 0 0 0.0062,-0.02894 14.816668,10.583335 0 0 0 0.01033,-0.04961 14.816668,10.583335 0 0 0 0.0155,-0.07648 14.816668,10.583335 0 0 0 0.0036,-0.01809 14.816668,10.583335 0 0 0 0.01344,-0.07338 14.816668,10.583335 0 0 0 0.01292,-0.06976 14.816668,10.583335 0 0 0 0.0026,-0.0155 14.816668,10.583335 0 0 0 0.01292,-0.07648 14.816668,10.583335 0 0 0 0.0015,-0.0098 14.816668,10.583335 0 0 0 0.01551,-0.100769 14.816668,10.583335 0 0 0 0.0026,-0.01602 14.816668,10.583335 0 0 0 0.0016,-0.01034 14.816668,10.583335 0 0 0 0.0155,-0.116788 14.816668,10.583335 0 0 0 0.0124,-0.09974 14.816668,10.583335 0 0 0 0.0072,-0.06873 14.816668,10.583335 0 0 0 0.001,-0.0088 14.816668,10.583335 0 0 0 0.0078,-0.077 14.816668,10.583335 0 0 0 0.0021,-0.02274 14.816668,10.583335 0 0 0 0.0088,-0.104387 14.816668,10.583335 0 0 0 0.0088,-0.12764 14.816668,10.583335 0 0 0 0.0057,-0.104387 14.816668,10.583335 0 0 0 0.001,-0.02325 14.816668,10.583335 0 0 0 0.0021,-0.05064 14.816668,10.583335 0 0 0 5.16e-4,-0.02635 14.816668,10.583335 0 0 0 0.0026,-0.0832 14.816668,10.583335 0 0 0 5.16e-4,-0.01757 14.816668,10.583335 0 0 0 0.001,-0.077 14.816668,10.583335 0 0 0 5.16e-4,-0.05064 14.816668,10.583335 0 0 0 0,-0.02325 14.816668,10.583335 0 0 0 -0.130225,-1.399398 14.816668,10.583335 0 0 0 -0.144693,-0.629419 14.816668,10.583335 0 0 0 -0.03514,-0.125057 14.816668,10.583335 0 0 0 -0.077,-0.24908 14.816668,10.583335 0 0 0 -0.08527,-0.24753 14.816668,10.583335 0 0 0 -0.09353,-0.246497 14.816668,10.583335 0 0 0 -0.155959,-0.365952 14.816668,10.583335 0 0 0 -0.114205,-0.241846 14.816668,10.583335 0 0 0 -0.18655,-0.358634 14.816668,10.583335 0 0 0 -0.204639,-0.353984 14.816668,10.583335 0 0 0 -0.146246,-0.232544 14.816668,10.583335 0 0 0 -0.211873,-0.312642 14.816668,10.583335 0 0 0 -6.881233,-4.799707 V 7.4083334 Z" />
      <path
         id="path869"
         style="opacity:1;fill:none;fill-opacity:1;fill-rule:nonzero;stroke:#000000;stroke-width:0.529167;stroke-linecap:round;stroke-linejoin:round;stroke-miterlimit:4;stroke-dasharray:none;stroke-dashoffset:0;stroke-opacity:1;paint-order:stroke fill markers"
         d="m 25.135416,28.919605 c 0,0.657564 -3.672198,1.190625 -8.202084,1.190625 -4.529885,0 -8.2020827,-0.533061 -8.2020831,-1.190625"
         sodipodi:nodetypes="csc" />
      <path
         id="path871"
         style="opacity:1;fill:none;fill-opacity:1;fill-rule:nonzero;stroke:#000000;stroke-width:0.529167;stroke-linecap:round;stroke-linejoin:round;stroke-miterlimit:4;stroke-dasharray:none;stroke-dashoffset:0;stroke-opacity:1;paint-order:stroke fill markers"
         d="m 23.283334,10.583332 c 0,0.584501 -2.842992,1.058333 -6.35,1.058333 -3.507008,0 -6.349999,-0.473832 -6.349999,-1.058333"
         sodipodi:nodetypes="csc" />
      <path
         id="path873"
         style="opacity:1;fill:#030052;fill-opacity:1;fill-rule:nonzero;stroke:#000000;stroke-width:0.529167;stroke-linecap:round;stroke-linejoin:round;stroke-miterlimit:4;stroke-dasharray:none;stroke-dashoffset:0;stroke-opacity:1;paint-order:stroke fill markers"
         d="m 9.2604169,3.1749999 v 4.733102 a 7.5406252,1.3523148 0 0 0 7.5406251,1.3523148 7.5406252,1.3523148 0 0 0 7.540625,-1.3523148 7.5406252,1.3523148 0 0 0 0,-0.0066 v -4.726499 z" />
      <ellipse
         style="opacity:1;fill:#0700c1;fill-opacity:1;fill-rule:nonzero;stroke:#000000;stroke-width:0.529167;stroke-linecap:round;stroke-linejoin:round;stroke-miterlimit:4;stroke-dasharray:none;stroke-dashoffset:0;stroke-opacity:1;paint-order:stroke fill markers"
         id="ellipse875"
         cx="16.801043"
         cy="3.1750016"
         rx="7.5406251"
         ry="1.0583333" />
    </g>
  </g>
  <g
     inkscape:groupmode="layer"
     id="layer2"
     inkscape:label="black"
     style="display:inline">
    <ellipse
       style="display:inline;fill:#101010;fill-opacity:0.491687;stroke:none;stroke-width:0.529167;stroke-linecap:round;stroke-linejoin:round;paint-order:markers fill stroke"
       id="path903-3"
       cx="22.225"
       cy="24.870834"
       rx="7.8052082"
       ry="1.3229166" />
    <g
       id="g993">
      <path
         id="path881"
         style="fill:#000000;fill-opacity:1;stroke:none;stroke-width:0.680688;stroke-linecap:round;stroke-miterlimit:4;stroke-dasharray:none;stroke-opacity:1;paint-order:markers stroke fill"
         d="m 13.715036,14.764213 a 9.5296598,6.8069003 0 0 0 -1.019705,3.063104 9.5296598,6.8069003 0 0 0 4.248329,5.66588 c -0.09812,0.05959 -0.164189,0.166501 -0.164189,0.290157 v 0.510518 c 0,0.188551 0.151793,0.340344 0.340345,0.340344 h 5.069611 0.03556 5.105174 c 0.188551,0 0.340345,-0.151793 0.340345,-0.340344 v -0.510518 c 0,-0.123656 -0.06606,-0.230568 -0.16419,-0.290157 a 9.5296598,6.8069003 0 0 0 4.24833,-5.66588 9.5296598,6.8069003 0 0 0 -1.019706,-3.063104 z" />
      <ellipse
         style="fill:#1b1b1e;fill-opacity:1;fill-rule:nonzero;stroke:none;stroke-width:0.63998;stroke-linecap:round;stroke-linejoin:round;stroke-miterlimit:4;stroke-dasharray:none;stroke-dashoffset:0;stroke-opacity:1;paint-order:stroke fill markers"
         id="ellipse883"
         cx="22.224989"
         cy="14.764214"
         rx="8.5086241"
         ry="0.76577622" />
      <ellipse
         style="fill:url(#radialGradient903);fill-opacity:1;fill-rule:nonzero;stroke:none;stroke-width:0.643172;stroke-linecap:round;stroke-linejoin:round;stroke-miterlimit:4;stroke-dasharray:none;stroke-dashoffset:0;stroke-opacity:1;paint-order:stroke fill markers"
         id="ellipse885"
         cx="22.911543"
         cy="-0.94693047"
         rx="2.4675009"
         ry="4.4244843"
         transform="rotate(44.707177)" />
      <path
         id="path887"
         style="fill:none;fill-opacity:1;fill-rule:nonzero;stroke:#404040;stroke-width:0.340345;stroke-linecap:round;stroke-linejoin:round;stroke-miterlimit:4;stroke-dasharray:none;stroke-dashoffset:0;stroke-opacity:1;paint-order:stroke fill markers"
         d="m 18.140851,11.701107 c 0,-0.375934 1.828531,-0.680689 4.084139,-0.680689 2.255608,0 4.08414,0.304755 4.08414,0.680689"
         sodipodi:nodetypes="csc" />
      <ellipse
         style="fill:#000000;fill-opacity:1;fill-rule:nonzero;stroke:none;stroke-width:0.511983;stroke-linecap:round;stroke-linejoin:round;stroke-miterlimit:4;stroke-dasharray:none;stroke-dashoffset:0;stroke-opacity:1;paint-order:stroke fill markers"
         id="ellipse889"
         cx="22.224989"
         cy="24.464045"
         rx="5.4455199"
         ry="0.76577622" />
      <path
         id="path893"
         style="fill:none;fill-opacity:1;fill-rule:nonzero;stroke:#000000;stroke-width:0.340345;stroke-linecap:round;stroke-linejoin:round;stroke-miterlimit:4;stroke-dasharray:none;stroke-dashoffset:0;stroke-opacity:1;paint-order:stroke fill markers"
         d="m 27.500336,23.494477 c 0,0.422927 -2.361853,0.765776 -5.275347,0.765776 -2.913493,0 -5.275347,-0.342849 -5.275347,-0.765776"
         sodipodi:nodetypes="csc" />
      <path
         id="path895"
         style="fill:none;fill-opacity:1;fill-rule:nonzero;stroke:#000000;stroke-width:0.340345;stroke-linecap:round;stroke-linejoin:round;stroke-miterlimit:4;stroke-dasharray:none;stroke-dashoffset:0;stroke-opacity:1;paint-order:stroke fill markers"
         d="m 26.30913,11.701107 c 0,0.375935 -1.828532,0.68069 -4.08414,0.68069 -2.255608,0 -4.084139,-0.304755 -4.084139,-0.68069"
         sodipodi:nodetypes="csc" />
      <path
         id="path897"
         style="fill:#080809;fill-opacity:1;fill-rule:nonzero;stroke:#000000;stroke-width:0.340345;stroke-linecap:round;stroke-linejoin:round;stroke-miterlimit:4;stroke-dasharray:none;stroke-dashoffset:0;stroke-opacity:1;paint-order:stroke fill markers"
         d="m 17.289988,6.9362788 v 3.0441967 a 4.8499158,0.86977045 0 0 0 4.849916,0.8697705 4.8499158,0.86977045 0 0 0 4.849915,-0.8697705 4.8499158,0.86977045 0 0 0 0,-0.00424 V 6.9362807 Z" />
      <ellipse
         style="fill:#1e1e23;fill-opacity:1;fill-rule:nonzero;stroke:#000000;stroke-width:0.340345;stroke-linecap:round;stroke-linejoin:round;stroke-miterlimit:4;stroke-dasharray:none;stroke-dashoffset:0;stroke-opacity:1;paint-order:stroke fill markers"
         id="ellipse899"
         cx="22.139904"
         cy="6.9362798"
         rx="4.849916"
         ry="0.68068987" />
    </g>
    <path
       id="path891"
       style="display:inline;fill:#5a5a67;fill-opacity:0.195013;fill-rule:nonzero;stroke:#000000;stroke-width:0.340345;stroke-linecap:round;stroke-linejoin:round;stroke-miterlimit:4;stroke-dasharray:none;stroke-dashoffset:0;stroke-opacity:1;paint-order:markers fill stroke"
       d="m 18.140851,9.6590386 v 2.0181394 a 9.5296598,6.8069003 0 0 0 -4.425815,3.087035 9.5296598,6.8069003 0 0 0 -0.05119,0.07345 9.5296598,6.8069003 0 0 0 -0.04985,0.07412 9.5296598,6.8069003 0 0 0 -0.0076,0.0113 9.5296598,6.8069003 0 0 0 -0.04088,0.06282 9.5296598,6.8069003 0 0 0 -0.0934,0.149898 9.5296598,6.8069003 0 0 0 -0.0073,0.01196 9.5296598,6.8069003 0 0 0 -0.03756,0.06382 9.5296598,6.8069003 0 0 0 -0.04321,0.07578 9.5296598,6.8069003 0 0 0 -0.04254,0.07644 9.5296598,6.8069003 0 0 0 -0.04055,0.07578 9.5296598,6.8069003 0 0 0 -3.32e-4,9.64e-4 9.5296598,6.8069003 0 0 0 -0.0063,0.01164 9.5296598,6.8069003 0 0 0 -0.03324,0.06514 9.5296598,6.8069003 0 0 0 -0.07545,0.155216 9.5296598,6.8069003 0 0 0 -0.0056,0.01196 9.5296598,6.8069003 0 0 0 -0.02991,0.06581 9.5296598,6.8069003 0 0 0 -0.0056,0.0123 9.5296598,6.8069003 0 0 0 -0.02892,0.06614 9.5296598,6.8069003 0 0 0 -0.0329,0.07844 9.5296598,6.8069003 0 0 0 -0.03191,0.07877 9.5296598,6.8069003 0 0 0 -0.03025,0.0791 9.5296598,6.8069003 0 0 0 -0.0226,0.06149 9.5296598,6.8069003 0 0 0 -0.0093,0.02593 9.5296598,6.8069003 0 0 0 -0.0017,0.0043 9.5296598,6.8069003 0 0 0 -0.02327,0.06747 9.5296598,6.8069003 0 0 0 -0.01761,0.05218 9.5296598,6.8069003 0 0 0 -0.01197,0.03656 9.5296598,6.8069003 0 0 0 -9.97e-4,0.0037 9.5296598,6.8069003 0 0 0 -0.02094,0.06747 9.5296598,6.8069003 0 0 0 -0.0236,0.08043 9.5296598,6.8069003 0 0 0 -0.02227,0.08043 9.5296598,6.8069003 0 0 0 -0.02094,0.08076 9.5296598,6.8069003 0 0 0 -0.01895,0.07877 9.5296598,6.8069003 0 0 0 -9.97e-4,0.003 9.5296598,6.8069003 0 0 0 -0.0027,0.01163 9.5296598,6.8069003 0 0 0 -0.03224,0.149567 9.5296598,6.8069003 0 0 0 -0.01296,0.0678 9.5296598,6.8069003 0 0 0 -0.0033,0.01662 9.5296598,6.8069003 0 0 0 -0.0017,0.0093 9.5296598,6.8069003 0 0 0 -0.01163,0.0688 9.5296598,6.8069003 0 0 0 -0.01263,0.08176 9.5296598,6.8069003 0 0 0 -0.0076,0.05351 9.5296598,6.8069003 0 0 0 -0.005,0.0359 9.5296598,6.8069003 0 0 0 -0.003,0.02493 9.5296598,6.8069003 0 0 0 -0.0073,0.06182 9.5296598,6.8069003 0 0 0 -0.0083,0.08176 9.5296598,6.8069003 0 0 0 -0.002,0.02393 9.5296598,6.8069003 0 0 0 -0.01,0.126965 9.5296598,6.8069003 0 0 0 -0.0027,0.0462 9.5296598,6.8069003 0 0 0 -0.0023,0.04853 9.5296598,6.8069003 0 0 0 -0.0027,0.07744 9.5296598,6.8069003 0 0 0 -6.63e-4,0.0236 9.5296598,6.8069003 0 0 0 -9.97e-4,0.06315 9.5296598,6.8069003 0 0 0 -3.32e-4,0.04653 9.5296598,6.8069003 0 0 0 0.08376,0.900053 9.5296598,6.8069003 0 0 0 0.0329,0.162196 9.5296598,6.8069003 0 0 0 0.01861,0.0811 9.5296598,6.8069003 0 0 0 0.04155,0.161531 9.5296598,6.8069003 0 0 0 0.706614,1.557144 9.5296598,6.8069003 0 0 0 0.04886,0.07412 9.5296598,6.8069003 0 0 0 0.319406,0.436399 9.5296598,6.8069003 0 0 0 0.116328,0.141258 9.5296598,6.8069003 0 0 0 1.250369,1.172927 9.5296598,6.8069003 0 0 0 3.33e-4,0 9.5296598,6.8069003 0 0 0 1.574428,0.952566 9.5296598,6.8069003 0 0 0 0.05517,0.02659 c -0.09813,0.05959 -0.16419,0.166502 -0.16419,0.290158 v 0.510517 c 0,0.03756 0.0075,0.07295 0.01861,0.10669 a 5.4455198,0.76577623 0 0 0 -0.01861,0.06348 5.4455198,0.76577623 0 0 0 5.44552,0.765776 5.4455198,0.76577623 0 0 0 5.445519,-0.765776 5.4455198,0.76577623 0 0 0 -0.01861,-0.06315 c 0.0112,-0.03382 0.01861,-0.06935 0.01861,-0.107023 v -0.510518 c 0,-0.123656 -0.06606,-0.230568 -0.16419,-0.290157 a 9.5296598,6.8069003 0 0 0 0.0063,-0.003 9.5296598,6.8069003 0 0 0 0.08376,-0.04055 9.5296598,6.8069003 0 0 0 0.0053,-0.0023 9.5296598,6.8069003 0 0 0 0.0026,-0.0014 9.5296598,6.8069003 0 0 0 0.09173,-0.04554 9.5296598,6.8069003 0 0 0 0.08641,-0.04387 9.5296598,6.8069003 0 0 0 0.0073,-0.0037 9.5296598,6.8069003 0 0 0 0.03689,-0.01894 9.5296598,6.8069003 0 0 0 0.05584,-0.02925 9.5296598,6.8069003 0 0 0 0.0083,-0.0043 9.5296598,6.8069003 0 0 0 0.07445,-0.03988 9.5296598,6.8069003 0 0 0 0.0093,-0.005 9.5296598,6.8069003 0 0 0 0.03623,-0.01961 9.5296598,6.8069003 0 0 0 0.05484,-0.03024 9.5296598,6.8069003 0 0 0 0.07478,-0.04188 9.5296598,6.8069003 0 0 0 0.01562,-0.0086 9.5296598,6.8069003 0 0 0 0.03556,-0.02027 9.5296598,6.8069003 0 0 0 0.05385,-0.03124 9.5296598,6.8069003 0 0 0 0.07279,-0.04287 9.5296598,6.8069003 0 0 0 0.01595,-0.0093 9.5296598,6.8069003 0 0 0 0.0349,-0.02094 9.5296598,6.8069003 0 0 0 0.05285,-0.03224 9.5296598,6.8069003 0 0 0 0.07279,-0.04487 9.5296598,6.8069003 0 0 0 0.01396,-0.0086 9.5296598,6.8069003 0 0 0 0.03424,-0.0216 9.5296598,6.8069003 0 0 0 0.05152,-0.0329 9.5296598,6.8069003 0 0 0 0.0339,-0.02194 9.5296598,6.8069003 0 0 0 0.0073,-0.0046 9.5296598,6.8069003 0 0 0 0.06547,-0.04321 9.5296598,6.8069003 0 0 0 0.01196,-0.0076 9.5296598,6.8069003 0 0 0 0.05052,-0.0339 9.5296598,6.8069003 0 0 0 0.08243,-0.05617 9.5296598,6.8069003 0 0 0 6.43e-4,-3.33e-4 9.5296598,6.8069003 0 0 0 3.32e-4,-3.32e-4 9.5296598,6.8069003 0 0 0 0.08176,-0.05717 9.5296598,6.8069003 0 0 0 0.07445,-0.05284 9.5296598,6.8069003 0 0 0 0.0066,-0.005 9.5296598,6.8069003 0 0 0 0.0033,-0.0023 9.5296598,6.8069003 0 0 0 0.07678,-0.0565 9.5296598,6.8069003 0 0 0 0.06016,-0.0452 9.5296598,6.8069003 0 0 0 0.01928,-0.01429 9.5296598,6.8069003 0 0 0 0.03125,-0.02393 9.5296598,6.8069003 0 0 0 0.04686,-0.03623 9.5296598,6.8069003 0 0 0 0.0014,-9.64e-4 9.5296598,6.8069003 0 0 0 0.0698,-0.05517 9.5296598,6.8069003 0 0 0 0.006,-0.0046 9.5296598,6.8069003 0 0 0 0.03025,-0.02427 9.5296598,6.8069003 0 0 0 0.04586,-0.03723 9.5296598,6.8069003 0 0 0 0.02991,-0.02459 9.5296598,6.8069003 0 0 0 0.0452,-0.03756 9.5296598,6.8069003 0 0 0 6.43e-4,-6.43e-4 9.5296598,6.8069003 0 0 0 0.06414,-0.05417 9.5296598,6.8069003 0 0 0 0.009,-0.0076 9.5296598,6.8069003 0 0 0 0.02925,-0.02526 9.5296598,6.8069003 0 0 0 0.04387,-0.03822 9.5296598,6.8069003 0 0 0 0.02858,-0.02526 9.5296598,6.8069003 0 0 0 0.04321,-0.03889 9.5296598,6.8069003 0 0 0 0.02826,-0.02559 9.5296598,6.8069003 0 0 0 0.04255,-0.03889 9.5296598,6.8069003 0 0 0 0.02792,-0.02593 9.5296598,6.8069003 0 0 0 0.0096,-0.009 9.5296598,6.8069003 0 0 0 0.05949,-0.0565 9.5296598,6.8069003 0 0 0 0.06814,-0.06614 9.5296598,6.8069003 0 0 0 0.04055,-0.03988 9.5296598,6.8069003 0 0 0 0.02659,-0.02659 9.5296598,6.8069003 0 0 0 0.03988,-0.04055 9.5296598,6.8069003 0 0 0 0.02593,-0.02659 9.5296598,6.8069003 0 0 0 0.03922,-0.04088 9.5296598,6.8069003 0 0 0 0.02559,-0.02692 9.5296598,6.8069003 0 0 0 0.03855,-0.04121 9.5296598,6.8069003 0 0 0 0.007,-0.0073 9.5296598,6.8069003 0 0 0 0.05351,-0.05883 9.5296598,6.8069003 0 0 0 0.0023,-0.0026 9.5296598,6.8069003 0 0 0 0.0246,-0.02725 9.5296598,6.8069003 0 0 0 0.03723,-0.04188 9.5296598,6.8069003 0 0 0 0.02426,-0.02759 9.5296598,6.8069003 0 0 0 0.03623,-0.04188 9.5296598,6.8069003 0 0 0 0.0063,-0.0076 9.5296598,6.8069003 0 0 0 0.04919,-0.05816 9.5296598,6.8069003 0 0 0 0.004,-0.0046 9.5296598,6.8069003 0 0 0 0.0026,-0.0033 9.5296598,6.8069003 0 0 0 0.05551,-0.06747 9.5296598,6.8069003 0 0 0 0.05684,-0.07113 9.5296598,6.8069003 0 0 0 0.05584,-0.07179 9.5296598,6.8069003 0 0 0 0.02194,-0.02858 9.5296598,6.8069003 0 0 0 0.01197,-0.01596 9.5296598,6.8069003 0 0 0 0.0359,-0.04786 9.5296598,6.8069003 0 0 0 0.0063,-0.0086 9.5296598,6.8069003 0 0 0 0.03191,-0.04387 9.5296598,6.8069003 0 0 0 0.003,-0.0043 9.5296598,6.8069003 0 0 0 0.04155,-0.05816 9.5296598,6.8069003 0 0 0 0.0076,-0.01064 9.5296598,6.8069003 0 0 0 0.02027,-0.02892 9.5296598,6.8069003 0 0 0 0.03058,-0.04454 9.5296598,6.8069003 0 0 0 0.0043,-0.0063 9.5296598,6.8069003 0 0 0 0.04321,-0.06448 9.5296598,6.8069003 0 0 0 0.002,-0.003 9.5296598,6.8069003 0 0 0 0.0014,-0.002 9.5296598,6.8069003 0 0 0 0.03623,-0.05551 9.5296598,6.8069003 0 0 0 0.01097,-0.01695 9.5296598,6.8069003 0 0 0 0.01895,-0.02991 9.5296598,6.8069003 0 0 0 0.0046,-0.0076 9.5296598,6.8069003 0 0 0 0.03789,-0.06049 9.5296598,6.8069003 0 0 0 0.004,-0.0067 9.5296598,6.8069003 0 0 0 0.02759,-0.04554 9.5296598,6.8069003 0 0 0 0.0046,-0.008 9.5296598,6.8069003 0 0 0 0.03756,-0.06348 9.5296598,6.8069003 0 0 0 0.0023,-0.004 9.5296598,6.8069003 0 0 0 0.0014,-0.0023 9.5296598,6.8069003 0 0 0 0.02958,-0.05185 9.5296598,6.8069003 0 0 0 0.02692,-0.04786 9.5296598,6.8069003 0 0 0 0.0023,-0.0043 9.5296598,6.8069003 0 0 0 0.02526,-0.0462 9.5296598,6.8069003 0 0 0 0.01629,-0.03025 9.5296598,6.8069003 0 0 0 0.02459,-0.04653 9.5296598,6.8069003 0 0 0 0.01562,-0.03024 9.5296598,6.8069003 0 0 0 0.0236,-0.04653 9.5296598,6.8069003 0 0 0 0.01529,-0.03091 9.5296598,6.8069003 0 0 0 0.02294,-0.04653 9.5296598,6.8069003 0 0 0 0.0053,-0.0113 9.5296598,6.8069003 0 0 0 0.02559,-0.05385 9.5296598,6.8069003 0 0 0 0.006,-0.01263 9.5296598,6.8069003 0 0 0 0.01429,-0.03091 9.5296598,6.8069003 0 0 0 0.02127,-0.0472 9.5296598,6.8069003 0 0 0 0.01362,-0.03091 9.5296598,6.8069003 0 0 0 0.02061,-0.04753 9.5296598,6.8069003 0 0 0 0.002,-0.005 9.5296598,6.8069003 0 0 0 0.0246,-0.05816 9.5296598,6.8069003 0 0 0 0.0063,-0.01529 9.5296598,6.8069003 0 0 0 0.005,-0.0123 9.5296598,6.8069003 0 0 0 0.0236,-0.05949 9.5296598,6.8069003 0 0 0 0.0026,-0.007 9.5296598,6.8069003 0 0 0 0.0017,-0.004 9.5296598,6.8069003 0 0 0 0.02593,-0.06814 9.5296598,6.8069003 0 0 0 0.0026,-0.0073 9.5296598,6.8069003 0 0 0 0.002,-0.005 9.5296598,6.8069003 0 0 0 0.02593,-0.07212 9.5296598,6.8069003 0 0 0 0.001,-0.0023 9.5296598,6.8069003 0 0 0 3.32e-4,-0.0014 9.5296598,6.8069003 0 0 0 0.0226,-0.06448 9.5296598,6.8069003 0 0 0 0.0046,-0.01363 9.5296598,6.8069003 0 0 0 0.01064,-0.03191 9.5296598,6.8069003 0 0 0 0.01562,-0.04819 9.5296598,6.8069003 0 0 0 0.01,-0.03157 9.5296598,6.8069003 0 0 0 0.0046,-0.01529 9.5296598,6.8069003 0 0 0 0.01861,-0.06182 9.5296598,6.8069003 0 0 0 9.64e-4,-0.0033 9.5296598,6.8069003 0 0 0 0.01396,-0.04819 9.5296598,6.8069003 0 0 0 0.009,-0.03191 9.5296598,6.8069003 0 0 0 0.0057,-0.02127 9.5296598,6.8069003 0 0 0 0.01263,-0.04753 9.5296598,6.8069003 0 0 0 0.0033,-0.01196 9.5296598,6.8069003 0 0 0 0.0123,-0.04853 9.5296598,6.8069003 0 0 0 0.008,-0.03224 9.5296598,6.8069003 0 0 0 0.01164,-0.04886 9.5296598,6.8069003 0 0 0 0.003,-0.01296 9.5296598,6.8069003 0 0 0 0.01097,-0.04952 9.5296598,6.8069003 0 0 0 0.004,-0.01861 9.5296598,6.8069003 0 0 0 0.0066,-0.03191 9.5296598,6.8069003 0 0 0 0.01,-0.04919 9.5296598,6.8069003 0 0 0 0.0023,-0.01163 9.5296598,6.8069003 0 0 0 0.0086,-0.0472 9.5296598,6.8069003 0 0 0 0.0083,-0.04487 9.5296598,6.8069003 0 0 0 0.0017,-0.01 9.5296598,6.8069003 0 0 0 0.0083,-0.04919 9.5296598,6.8069003 0 0 0 9.65e-4,-0.0063 9.5296598,6.8069003 0 0 0 0.01,-0.06481 9.5296598,6.8069003 0 0 0 0.0017,-0.0103 9.5296598,6.8069003 0 0 0 0.001,-0.0067 9.5296598,6.8069003 0 0 0 0.01,-0.07511 9.5296598,6.8069003 0 0 0 0.008,-0.06415 9.5296598,6.8069003 0 0 0 0.0046,-0.04421 9.5296598,6.8069003 0 0 0 6.43e-4,-0.0057 9.5296598,6.8069003 0 0 0 0.005,-0.04952 9.5296598,6.8069003 0 0 0 0.0014,-0.01463 9.5296598,6.8069003 0 0 0 0.0057,-0.06714 9.5296598,6.8069003 0 0 0 0.0057,-0.08209 9.5296598,6.8069003 0 0 0 0.0037,-0.06714 9.5296598,6.8069003 0 0 0 6.43e-4,-0.01495 9.5296598,6.8069003 0 0 0 0.0013,-0.03257 9.5296598,6.8069003 0 0 0 3.32e-4,-0.01695 9.5296598,6.8069003 0 0 0 0.0017,-0.05351 9.5296598,6.8069003 0 0 0 3.32e-4,-0.0113 9.5296598,6.8069003 0 0 0 6.44e-4,-0.04952 9.5296598,6.8069003 0 0 0 3.31e-4,-0.03257 9.5296598,6.8069003 0 0 0 0,-0.01495 9.5296598,6.8069003 0 0 0 -0.08376,-0.900053 9.5296598,6.8069003 0 0 0 -0.09306,-0.404825 9.5296598,6.8069003 0 0 0 -0.0226,-0.08043 9.5296598,6.8069003 0 0 0 -0.04952,-0.160201 9.5296598,6.8069003 0 0 0 -0.05484,-0.159204 9.5296598,6.8069003 0 0 0 -0.06015,-0.15854 9.5296598,6.8069003 0 0 0 -0.100309,-0.23537 9.5296598,6.8069003 0 0 0 -0.07345,-0.155548 9.5296598,6.8069003 0 0 0 -0.119984,-0.230664 9.5296598,6.8069003 0 0 0 -0.131618,-0.227672 9.5296598,6.8069003 0 0 0 -0.09406,-0.149566 9.5296598,6.8069003 0 0 0 -0.136271,-0.201082 9.5296598,6.8069003 0 0 0 -4.425813,-3.087035 V 9.6590386 Z" />
  </g>
  <g
     inkscape:groupmode="layer"
     id="layer3"
     inkscape:label="blue-black"
     style="display:inline">
    <ellipse
       style="fill:#101010;fill-opacity:0.491687;stroke:none;stroke-width:0.529167;stroke-linecap:round;stroke-linejoin:round;paint-order:markers fill stroke"
       id="path903"
       cx="17.065626"
       cy="27.516666"
       rx="7.8052087"
       ry="1.3229167" />
    <g
       id="g991">
      <path
         id="path846"
         style="fill:#0d1f31;fill-opacity:1;stroke:none;stroke-width:0.680688;stroke-linecap:round;stroke-miterlimit:4;stroke-dasharray:none;stroke-opacity:1;paint-order:markers stroke fill"
         d="m 8.4233687,17.410046 a 9.5296598,6.8069003 0 0 0 -1.0197055,3.063105 9.5296598,6.8069003 0 0 0 4.2483298,5.665879 c -0.09813,0.05959 -0.16419,0.166501 -0.16419,0.290158 v 0.510517 c 0,0.188551 0.151794,0.340345 0.340345,0.340345 h 5.069611 0.03556 5.105174 c 0.188551,0 0.340346,-0.151794 0.340346,-0.340345 v -0.510517 c 0,-0.123657 -0.06607,-0.230569 -0.164191,-0.290158 a 9.5296598,6.8069003 0 0 0 4.24833,-5.665879 9.5296598,6.8069003 0 0 0 -1.019706,-3.063105 z" />
      <ellipse
         style="fill:#28394e;fill-opacity:1;fill-rule:nonzero;stroke:none;stroke-width:0.63998;stroke-linecap:round;stroke-linejoin:round;stroke-miterlimit:4;stroke-dasharray:none;stroke-dashoffset:0;stroke-opacity:1;paint-order:stroke fill markers"
         id="path914"
         cx="16.933321"
         cy="17.410048"
         rx="8.5086241"
         ry="0.76577622" />
      <ellipse
         style="fill:url(#radialGradient910);fill-opacity:1;fill-rule:nonzero;stroke:none;stroke-width:0.643172;stroke-linecap:round;stroke-linejoin:round;stroke-miterlimit:4;stroke-dasharray:none;stroke-dashoffset:0;stroke-opacity:1;paint-order:stroke fill markers"
         id="path902"
         cx="21.011995"
         cy="4.6560955"
         rx="2.4675009"
         ry="4.4244843"
         transform="rotate(44.707177)" />
      <path
         id="ellipse924"
         style="fill:none;fill-opacity:1;fill-rule:nonzero;stroke:#404040;stroke-width:0.340345;stroke-linecap:round;stroke-linejoin:round;stroke-miterlimit:4;stroke-dasharray:none;stroke-dashoffset:0;stroke-opacity:1;paint-order:stroke fill markers"
         d="m 12.849184,14.346941 c 0,-0.375935 1.828531,-0.68069 4.084138,-0.68069 2.255608,0 4.08414,0.304755 4.08414,0.68069"
         sodipodi:nodetypes="csc" />
      <ellipse
         style="fill:#0b0f14;fill-opacity:1;fill-rule:nonzero;stroke:none;stroke-width:0.511983;stroke-linecap:round;stroke-linejoin:round;stroke-miterlimit:4;stroke-dasharray:none;stroke-dashoffset:0;stroke-opacity:1;paint-order:stroke fill markers"
         id="ellipse935"
         cx="16.933321"
         cy="27.109879"
         rx="5.4455199"
         ry="0.76577622" />
      <path
         id="ellipse916"
         style="fill:#405d82;fill-opacity:0.195013;fill-rule:nonzero;stroke:#000000;stroke-width:0.340345;stroke-linecap:round;stroke-linejoin:round;stroke-miterlimit:4;stroke-dasharray:none;stroke-dashoffset:0;stroke-opacity:1;paint-order:markers fill stroke"
         d="m 12.849183,12.304872 v 2.018139 a 9.5296598,6.8069003 0 0 0 -4.4258143,3.087035 9.5296598,6.8069003 0 0 0 -0.051185,0.07345 9.5296598,6.8069003 0 0 0 -0.049855,0.07412 9.5296598,6.8069003 0 0 0 -0.00764,0.0113 9.5296598,6.8069003 0 0 0 -0.040881,0.06282 9.5296598,6.8069003 0 0 0 -0.093395,0.149898 9.5296598,6.8069003 0 0 0 -0.00731,0.01196 9.5296598,6.8069003 0 0 0 -0.037557,0.06382 9.5296598,6.8069003 0 0 0 -0.043208,0.07578 9.5296598,6.8069003 0 0 0 -0.042543,0.07644 9.5296598,6.8069003 0 0 0 -0.040549,0.07578 9.5296598,6.8069003 0 0 0 -3.323e-4,9.65e-4 9.5296598,6.8069003 0 0 0 -0.00632,0.01163 9.5296598,6.8069003 0 0 0 -0.033237,0.06514 9.5296598,6.8069003 0 0 0 -0.075448,0.155216 9.5296598,6.8069003 0 0 0 -0.00565,0.01196 9.5296598,6.8069003 0 0 0 -0.029913,0.06581 9.5296598,6.8069003 0 0 0 -0.00565,0.0123 9.5296598,6.8069003 0 0 0 -0.028916,0.06614 9.5296598,6.8069003 0 0 0 -0.032904,0.07844 9.5296598,6.8069003 0 0 0 -0.031907,0.07877 9.5296598,6.8069003 0 0 0 -0.030246,0.0791 9.5296598,6.8069003 0 0 0 -0.022601,0.06149 9.5296598,6.8069003 0 0 0 -0.00931,0.02593 9.5296598,6.8069003 0 0 0 -0.00166,0.0043 9.5296598,6.8069003 0 0 0 -0.023266,0.06747 9.5296598,6.8069003 0 0 0 -0.017615,0.05218 9.5296598,6.8069003 0 0 0 -0.011966,0.03656 9.5296598,6.8069003 0 0 0 -9.969e-4,0.0037 9.5296598,6.8069003 0 0 0 -0.020939,0.06747 9.5296598,6.8069003 0 0 0 -0.023598,0.08043 9.5296598,6.8069003 0 0 0 -0.022269,0.08043 9.5296598,6.8069003 0 0 0 -0.020939,0.08077 9.5296598,6.8069003 0 0 0 -0.018945,0.07877 9.5296598,6.8069003 0 0 0 -9.97e-4,0.003 9.5296598,6.8069003 0 0 0 -0.00266,0.01163 9.5296598,6.8069003 0 0 0 -0.03224,0.149567 9.5296598,6.8069003 0 0 0 -0.012963,0.0678 9.5296598,6.8069003 0 0 0 -0.00333,0.01662 9.5296598,6.8069003 0 0 0 -0.00166,0.0093 9.5296598,6.8069003 0 0 0 -0.011633,0.0688 9.5296598,6.8069003 0 0 0 -0.01263,0.08176 9.5296598,6.8069003 0 0 0 -0.00764,0.05351 9.5296598,6.8069003 0 0 0 -0.00498,0.0359 9.5296598,6.8069003 0 0 0 -0.00299,0.02493 9.5296598,6.8069003 0 0 0 -0.00731,0.06182 9.5296598,6.8069003 0 0 0 -0.00831,0.08176 9.5296598,6.8069003 0 0 0 -0.00199,0.02393 9.5296598,6.8069003 0 0 0 -0.00997,0.126965 9.5296598,6.8069003 0 0 0 -0.00266,0.0462 9.5296598,6.8069003 0 0 0 -0.00233,0.04853 9.5296598,6.8069003 0 0 0 -0.00266,0.07744 9.5296598,6.8069003 0 0 0 -6.624e-4,0.0236 9.5296598,6.8069003 0 0 0 -9.969e-4,0.06315 9.5296598,6.8069003 0 0 0 -3.324e-4,0.04653 9.5296598,6.8069003 0 0 0 0.083757,0.900053 9.5296598,6.8069003 0 0 0 0.032905,0.162195 9.5296598,6.8069003 0 0 0 0.018613,0.0811 9.5296598,6.8069003 0 0 0 0.041546,0.161531 9.5296598,6.8069003 0 0 0 0.7066147,1.557144 9.5296598,6.8069003 0 0 0 0.048858,0.07412 9.5296598,6.8069003 0 0 0 0.3194058,0.436399 9.5296598,6.8069003 0 0 0 0.1163287,0.141257 9.5296598,6.8069003 0 0 0 1.250369,1.172927 9.5296598,6.8069003 0 0 0 3.32e-4,0 9.5296598,6.8069003 0 0 0 1.574428,0.952566 9.5296598,6.8069003 0 0 0 0.05517,0.02659 c -0.09812,0.05959 -0.16419,0.166502 -0.16419,0.290158 v 0.510517 c 0,0.03756 0.0075,0.07296 0.01861,0.10669 a 5.4455198,0.76577623 0 0 0 -0.01861,0.06348 5.4455198,0.76577623 0 0 0 5.44552,0.765776 5.4455198,0.76577623 0 0 0 5.44552,-0.765776 5.4455198,0.76577623 0 0 0 -0.01861,-0.06315 c 0.0112,-0.03382 0.01861,-0.06935 0.01861,-0.107023 v -0.510517 c 0,-0.123657 -0.06606,-0.230569 -0.16419,-0.290158 a 9.5296598,6.8069003 0 0 0 0.0063,-0.003 9.5296598,6.8069003 0 0 0 0.08376,-0.04055 9.5296598,6.8069003 0 0 0 0.0053,-0.0023 9.5296598,6.8069003 0 0 0 0.0026,-0.0014 9.5296598,6.8069003 0 0 0 0.09173,-0.04554 9.5296598,6.8069003 0 0 0 0.08642,-0.04387 9.5296598,6.8069003 0 0 0 0.0073,-0.0037 9.5296598,6.8069003 0 0 0 0.03689,-0.01894 9.5296598,6.8069003 0 0 0 0.05584,-0.02925 9.5296598,6.8069003 0 0 0 0.0083,-0.0043 9.5296598,6.8069003 0 0 0 0.07445,-0.03988 9.5296598,6.8069003 0 0 0 0.0093,-0.005 9.5296598,6.8069003 0 0 0 0.03623,-0.01961 9.5296598,6.8069003 0 0 0 0.05484,-0.03024 9.5296598,6.8069003 0 0 0 0.07478,-0.04188 9.5296598,6.8069003 0 0 0 0.01562,-0.0086 9.5296598,6.8069003 0 0 0 0.03556,-0.02027 9.5296598,6.8069003 0 0 0 0.05385,-0.03124 9.5296598,6.8069003 0 0 0 0.07279,-0.04287 9.5296598,6.8069003 0 0 0 0.01595,-0.0093 9.5296598,6.8069003 0 0 0 0.0349,-0.02094 9.5296598,6.8069003 0 0 0 0.05285,-0.03224 9.5296598,6.8069003 0 0 0 0.07279,-0.04487 9.5296598,6.8069003 0 0 0 0.01396,-0.0086 9.5296598,6.8069003 0 0 0 0.03424,-0.0216 9.5296598,6.8069003 0 0 0 0.05152,-0.0329 9.5296598,6.8069003 0 0 0 0.0339,-0.02194 9.5296598,6.8069003 0 0 0 0.0073,-0.0046 9.5296598,6.8069003 0 0 0 0.06548,-0.04321 9.5296598,6.8069003 0 0 0 0.01196,-0.0076 9.5296598,6.8069003 0 0 0 0.05052,-0.0339 9.5296598,6.8069003 0 0 0 0.08243,-0.05617 9.5296598,6.8069003 0 0 0 6.43e-4,-3.33e-4 9.5296598,6.8069003 0 0 0 3.32e-4,-3.32e-4 9.5296598,6.8069003 0 0 0 0.08176,-0.05717 9.5296598,6.8069003 0 0 0 0.07445,-0.05284 9.5296598,6.8069003 0 0 0 0.0066,-0.005 9.5296598,6.8069003 0 0 0 0.0033,-0.0023 9.5296598,6.8069003 0 0 0 0.07678,-0.0565 9.5296598,6.8069003 0 0 0 0.06016,-0.0452 9.5296598,6.8069003 0 0 0 0.01928,-0.01429 9.5296598,6.8069003 0 0 0 0.03124,-0.02393 9.5296598,6.8069003 0 0 0 0.04686,-0.03623 9.5296598,6.8069003 0 0 0 0.0014,-9.64e-4 9.5296598,6.8069003 0 0 0 0.0698,-0.05517 9.5296598,6.8069003 0 0 0 0.006,-0.0046 9.5296598,6.8069003 0 0 0 0.03025,-0.02427 9.5296598,6.8069003 0 0 0 0.04586,-0.03723 9.5296598,6.8069003 0 0 0 0.02991,-0.02459 9.5296598,6.8069003 0 0 0 0.0452,-0.03756 9.5296598,6.8069003 0 0 0 6.43e-4,-6.43e-4 9.5296598,6.8069003 0 0 0 0.06414,-0.05417 9.5296598,6.8069003 0 0 0 0.009,-0.0076 9.5296598,6.8069003 0 0 0 0.02924,-0.02526 9.5296598,6.8069003 0 0 0 0.04387,-0.03822 9.5296598,6.8069003 0 0 0 0.02858,-0.02526 9.5296598,6.8069003 0 0 0 0.04321,-0.03889 9.5296598,6.8069003 0 0 0 0.02825,-0.02559 9.5296598,6.8069003 0 0 0 0.04255,-0.03889 9.5296598,6.8069003 0 0 0 0.02792,-0.02593 9.5296598,6.8069003 0 0 0 0.0096,-0.009 9.5296598,6.8069003 0 0 0 0.05949,-0.0565 9.5296598,6.8069003 0 0 0 0.06813,-0.06614 9.5296598,6.8069003 0 0 0 0.04055,-0.03988 9.5296598,6.8069003 0 0 0 0.02659,-0.02659 9.5296598,6.8069003 0 0 0 0.03988,-0.04055 9.5296598,6.8069003 0 0 0 0.02593,-0.02659 9.5296598,6.8069003 0 0 0 0.03922,-0.04088 9.5296598,6.8069003 0 0 0 0.02559,-0.02692 9.5296598,6.8069003 0 0 0 0.03855,-0.04121 9.5296598,6.8069003 0 0 0 0.007,-0.0073 9.5296598,6.8069003 0 0 0 0.05351,-0.05883 9.5296598,6.8069003 0 0 0 0.0023,-0.0026 9.5296598,6.8069003 0 0 0 0.0246,-0.02725 9.5296598,6.8069003 0 0 0 0.03723,-0.04188 9.5296598,6.8069003 0 0 0 0.02426,-0.02758 9.5296598,6.8069003 0 0 0 0.03623,-0.04188 9.5296598,6.8069003 0 0 0 0.0063,-0.0076 9.5296598,6.8069003 0 0 0 0.04919,-0.05816 9.5296598,6.8069003 0 0 0 0.004,-0.0046 9.5296598,6.8069003 0 0 0 0.0026,-0.0033 9.5296598,6.8069003 0 0 0 0.05551,-0.06747 9.5296598,6.8069003 0 0 0 0.05684,-0.07113 9.5296598,6.8069003 0 0 0 0.05584,-0.07179 9.5296598,6.8069003 0 0 0 0.02194,-0.02858 9.5296598,6.8069003 0 0 0 0.01197,-0.01596 9.5296598,6.8069003 0 0 0 0.0359,-0.04786 9.5296598,6.8069003 0 0 0 0.0063,-0.0086 9.5296598,6.8069003 0 0 0 0.03191,-0.04387 9.5296598,6.8069003 0 0 0 0.003,-0.0043 9.5296598,6.8069003 0 0 0 0.04155,-0.05816 9.5296598,6.8069003 0 0 0 0.0076,-0.01064 9.5296598,6.8069003 0 0 0 0.02027,-0.02892 9.5296598,6.8069003 0 0 0 0.03058,-0.04454 9.5296598,6.8069003 0 0 0 0.0043,-0.0063 9.5296598,6.8069003 0 0 0 0.04321,-0.06448 9.5296598,6.8069003 0 0 0 0.002,-0.003 9.5296598,6.8069003 0 0 0 0.0014,-0.002 9.5296598,6.8069003 0 0 0 0.03623,-0.05551 9.5296598,6.8069003 0 0 0 0.01097,-0.01695 9.5296598,6.8069003 0 0 0 0.01895,-0.02991 9.5296598,6.8069003 0 0 0 0.0046,-0.0076 9.5296598,6.8069003 0 0 0 0.03789,-0.06049 9.5296598,6.8069003 0 0 0 0.004,-0.0066 9.5296598,6.8069003 0 0 0 0.02758,-0.04554 9.5296598,6.8069003 0 0 0 0.0046,-0.008 9.5296598,6.8069003 0 0 0 0.03756,-0.06348 9.5296598,6.8069003 0 0 0 0.0023,-0.004 9.5296598,6.8069003 0 0 0 0.0014,-0.0023 9.5296598,6.8069003 0 0 0 0.02958,-0.05185 9.5296598,6.8069003 0 0 0 0.02692,-0.04786 9.5296598,6.8069003 0 0 0 0.0023,-0.0043 9.5296598,6.8069003 0 0 0 0.02526,-0.0462 9.5296598,6.8069003 0 0 0 0.01628,-0.03025 9.5296598,6.8069003 0 0 0 0.02459,-0.04653 9.5296598,6.8069003 0 0 0 0.01562,-0.03024 9.5296598,6.8069003 0 0 0 0.0236,-0.04653 9.5296598,6.8069003 0 0 0 0.01529,-0.03091 9.5296598,6.8069003 0 0 0 0.02294,-0.04653 9.5296598,6.8069003 0 0 0 0.0053,-0.0113 9.5296598,6.8069003 0 0 0 0.02559,-0.05385 9.5296598,6.8069003 0 0 0 0.006,-0.01263 9.5296598,6.8069003 0 0 0 0.01429,-0.03091 9.5296598,6.8069003 0 0 0 0.02127,-0.0472 9.5296598,6.8069003 0 0 0 0.01362,-0.03091 9.5296598,6.8069003 0 0 0 0.02061,-0.04753 9.5296598,6.8069003 0 0 0 0.002,-0.005 9.5296598,6.8069003 0 0 0 0.02459,-0.05816 9.5296598,6.8069003 0 0 0 0.0063,-0.01529 9.5296598,6.8069003 0 0 0 0.005,-0.0123 9.5296598,6.8069003 0 0 0 0.0236,-0.05949 9.5296598,6.8069003 0 0 0 0.0026,-0.007 9.5296598,6.8069003 0 0 0 0.0017,-0.004 9.5296598,6.8069003 0 0 0 0.02593,-0.06814 9.5296598,6.8069003 0 0 0 0.0026,-0.0073 9.5296598,6.8069003 0 0 0 0.002,-0.005 9.5296598,6.8069003 0 0 0 0.02593,-0.07212 9.5296598,6.8069003 0 0 0 0.001,-0.0023 9.5296598,6.8069003 0 0 0 3.32e-4,-0.0014 9.5296598,6.8069003 0 0 0 0.0226,-0.06448 9.5296598,6.8069003 0 0 0 0.0046,-0.01363 9.5296598,6.8069003 0 0 0 0.01064,-0.03191 9.5296598,6.8069003 0 0 0 0.01562,-0.04819 9.5296598,6.8069003 0 0 0 0.01,-0.03157 9.5296598,6.8069003 0 0 0 0.0046,-0.01529 9.5296598,6.8069003 0 0 0 0.01861,-0.06182 9.5296598,6.8069003 0 0 0 9.65e-4,-0.0033 9.5296598,6.8069003 0 0 0 0.01396,-0.04819 9.5296598,6.8069003 0 0 0 0.009,-0.03191 9.5296598,6.8069003 0 0 0 0.0057,-0.02127 9.5296598,6.8069003 0 0 0 0.01263,-0.04753 9.5296598,6.8069003 0 0 0 0.0033,-0.01196 9.5296598,6.8069003 0 0 0 0.0123,-0.04853 9.5296598,6.8069003 0 0 0 0.008,-0.03224 9.5296598,6.8069003 0 0 0 0.01163,-0.04886 9.5296598,6.8069003 0 0 0 0.003,-0.01296 9.5296598,6.8069003 0 0 0 0.01097,-0.04952 9.5296598,6.8069003 0 0 0 0.004,-0.01861 9.5296598,6.8069003 0 0 0 0.0066,-0.03191 9.5296598,6.8069003 0 0 0 0.01,-0.04919 9.5296598,6.8069003 0 0 0 0.0023,-0.01164 9.5296598,6.8069003 0 0 0 0.0086,-0.0472 9.5296598,6.8069003 0 0 0 0.0083,-0.04487 9.5296598,6.8069003 0 0 0 0.0017,-0.01 9.5296598,6.8069003 0 0 0 0.0083,-0.04919 9.5296598,6.8069003 0 0 0 9.65e-4,-0.0063 9.5296598,6.8069003 0 0 0 0.01,-0.06481 9.5296598,6.8069003 0 0 0 0.0017,-0.0103 9.5296598,6.8069003 0 0 0 0.001,-0.0067 9.5296598,6.8069003 0 0 0 0.01,-0.07511 9.5296598,6.8069003 0 0 0 0.008,-0.06415 9.5296598,6.8069003 0 0 0 0.0046,-0.04421 9.5296598,6.8069003 0 0 0 6.44e-4,-0.0057 9.5296598,6.8069003 0 0 0 0.005,-0.04952 9.5296598,6.8069003 0 0 0 0.0014,-0.01463 9.5296598,6.8069003 0 0 0 0.0057,-0.06714 9.5296598,6.8069003 0 0 0 0.0057,-0.08209 9.5296598,6.8069003 0 0 0 0.0037,-0.06714 9.5296598,6.8069003 0 0 0 6.43e-4,-0.01495 9.5296598,6.8069003 0 0 0 0.0014,-0.03257 9.5296598,6.8069003 0 0 0 3.32e-4,-0.01695 9.5296598,6.8069003 0 0 0 0.0017,-0.05351 9.5296598,6.8069003 0 0 0 3.32e-4,-0.0113 9.5296598,6.8069003 0 0 0 6.43e-4,-0.04952 9.5296598,6.8069003 0 0 0 3.32e-4,-0.03257 9.5296598,6.8069003 0 0 0 0,-0.01495 9.5296598,6.8069003 0 0 0 -0.08376,-0.900053 9.5296598,6.8069003 0 0 0 -0.09306,-0.404825 9.5296598,6.8069003 0 0 0 -0.0226,-0.08043 9.5296598,6.8069003 0 0 0 -0.04952,-0.160201 9.5296598,6.8069003 0 0 0 -0.05484,-0.159204 9.5296598,6.8069003 0 0 0 -0.06016,-0.15854 9.5296598,6.8069003 0 0 0 -0.100308,-0.23537 9.5296598,6.8069003 0 0 0 -0.07345,-0.155548 9.5296598,6.8069003 0 0 0 -0.119984,-0.230664 9.5296598,6.8069003 0 0 0 -0.131618,-0.227672 9.5296598,6.8069003 0 0 0 -0.09406,-0.149566 9.5296598,6.8069003 0 0 0 -0.13627,-0.201082 9.5296598,6.8069003 0 0 0 -4.425814,-3.087035 v -2.018139 z" />
      <path
         id="ellipse928"
         style="fill:none;fill-opacity:1;fill-rule:nonzero;stroke:#000000;stroke-width:0.340345;stroke-linecap:round;stroke-linejoin:round;stroke-miterlimit:4;stroke-dasharray:none;stroke-dashoffset:0;stroke-opacity:1;paint-order:stroke fill markers"
         d="m 22.208669,26.14031 c 0,0.422927 -2.361854,0.765776 -5.275348,0.765776 -2.913493,0 -5.275346,-0.342849 -5.275347,-0.765776"
         sodipodi:nodetypes="csc" />
      <path
         id="path944"
         style="fill:none;fill-opacity:1;fill-rule:nonzero;stroke:#000000;stroke-width:0.340345;stroke-linecap:round;stroke-linejoin:round;stroke-miterlimit:4;stroke-dasharray:none;stroke-dashoffset:0;stroke-opacity:1;paint-order:stroke fill markers"
         d="m 21.017462,14.346941 c 0,0.375934 -1.828532,0.680689 -4.08414,0.680689 -2.255607,0 -4.084138,-0.304755 -4.084138,-0.680689"
         sodipodi:nodetypes="csc" />
      <path
         id="ellipse922"
         style="fill:#112641;fill-opacity:1;fill-rule:nonzero;stroke:#000000;stroke-width:0.340345;stroke-linecap:round;stroke-linejoin:round;stroke-miterlimit:4;stroke-dasharray:none;stroke-dashoffset:0;stroke-opacity:1;paint-order:stroke fill markers"
         d="m 11.99832,9.5821119 v 3.0441971 a 4.8499158,0.86977045 0 0 0 4.849916,0.86977 4.8499158,0.86977045 0 0 0 4.849916,-0.86977 4.8499158,0.86977045 0 0 0 0,-0.0042 V 9.5821138 Z" />
      <ellipse
         style="fill:#425d80;fill-opacity:1;fill-rule:nonzero;stroke:#000000;stroke-width:0.340345;stroke-linecap:round;stroke-linejoin:round;stroke-miterlimit:4;stroke-dasharray:none;stroke-dashoffset:0;stroke-opacity:1;paint-order:stroke fill markers"
         id="ellipse946"
         cx="16.848236"
         cy="9.5821133"
         rx="4.849916"
         ry="0.68068987" />
    </g>
  </g>
</svg>
