<?xml version="1.0" encoding="UTF-8" standalone="no"?>
<svg
   xmlns:dc="http://purl.org/dc/elements/1.1/"
   xmlns:cc="http://creativecommons.org/ns#"
   xmlns:rdf="http://www.w3.org/1999/02/22-rdf-syntax-ns#"
   xmlns:svg="http://www.w3.org/2000/svg"
   xmlns="http://www.w3.org/2000/svg"
   xmlns:sodipodi="http://sodipodi.sourceforge.net/DTD/sodipodi-0.dtd"
   xmlns:inkscape="http://www.inkscape.org/namespaces/inkscape"
   width="128"
   height="128"
   viewBox="0 0 33.866666 33.866668"
   version="1.1"
   id="svg8"
   inkscape:version="1.0.1 (0767f8302a, 2020-10-17)"
   sodipodi:docname="inktools.svg">
  <defs
     id="defs2" />
  <sodipodi:namedview
     id="base"
     pagecolor="#ffffff"
     bordercolor="#666666"
     borderopacity="1.0"
     inkscape:pageopacity="0.0"
     inkscape:pageshadow="2"
     inkscape:zoom="8.9296875"
     inkscape:cx="64"
     inkscape:cy="64"
     inkscape:document-units="px"
     inkscape:current-layer="layer1"
     inkscape:document-rotation="0"
     showgrid="true"
     units="px"
     inkscape:snap-bbox="true"
     inkscape:bbox-paths="true"
     inkscape:bbox-nodes="true"
     inkscape:snap-bbox-edge-midpoints="true"
     inkscape:snap-bbox-midpoints="true"
     inkscape:snap-object-midpoints="true"
     inkscape:snap-center="true"
     inkscape:window-width="2560"
     inkscape:window-height="1405"
     inkscape:window-x="0"
     inkscape:window-y="35"
     inkscape:window-maximized="1">
    <inkscape:grid
       type="xygrid"
       id="grid833"
       empspacing="8" />
  </sodipodi:namedview>
  <metadata
     id="metadata5">
    <rdf:RDF>
      <cc:Work
         rdf:about="">
        <dc:format>image/svg+xml</dc:format>
        <dc:type
           rdf:resource="http://purl.org/dc/dcmitype/StillImage" />
        <dc:title></dc:title>
      </cc:Work>
    </rdf:RDF>
  </metadata>
  <g
     inkscape:label="Слой 1"
     inkscape:groupmode="layer"
     id="layer1">
    <path
       id="path835"
       style="fill:#b3b3b3;stroke-width:3.99999994;stroke-linecap:round;paint-order:markers stroke fill;stroke:#000000;stroke-opacity:1;fill-opacity:1;stroke-miterlimit:4;stroke-dasharray:none"
       d="M 48 24 L 48 33.667969 A 56.000002 40.000003 0 0 0 8 72 A 56.000002 40.000003 0 0 0 32.964844 105.29492 C 32.388221 105.64509 32 106.27335 32 107 L 32 110 C 32 111.108 32.891999 112 34 112 L 63.791016 112 L 64 112 L 94 112 C 95.107999 112 96 111.108 96 110 L 96 107 C 96 106.27335 95.611779 105.64509 95.035156 105.29492 A 56.000002 40.000003 0 0 0 120 72 A 56.000002 40.000003 0 0 0 80 33.667969 L 80 24 L 48 24 z "
       transform="scale(0.26458334)" />
    <path
       id="path846"
       style="fill:#050087;stroke-width:3.99999994;stroke-linecap:round;paint-order:markers stroke fill;stroke:none;stroke-opacity:1;fill-opacity:1;stroke-miterlimit:4;stroke-dasharray:none"
       d="M 13.992188 54 A 56.000003 40.000004 0 0 0 8 72 A 56.000003 40.000004 0 0 0 32.964844 105.29492 C 32.388221 105.64509 32 106.27335 32 107 L 32 110 C 32 111.108 32.891999 112 34 112 L 63.791016 112 L 64 112 L 94 112 C 95.107999 112 96 111.108 96 110 L 96 107 C 96 106.27335 95.611779 105.64509 95.035156 105.29492 A 56.000003 40.000004 0 0 0 120 72 A 56.000003 40.000004 0 0 0 114.00781 54 L 13.992188 54 z "
       transform="scale(0.26458334)" />
    <rect
       style="fill:#050087;fill-opacity:1;stroke:#000000;stroke-width:1.05833;stroke-linecap:round;stroke-miterlimit:4;stroke-dasharray:none;stroke-opacity:1;paint-order:markers stroke fill"
       id="rect852"
       width="11.1125"
       height="3.4395831"
       x="11.377084"
       y="4.2333336" />
  </g>
</svg>
