<?xml version="1.0" encoding="UTF-8" standalone="no"?>
<svg
   xmlns:dc="http://purl.org/dc/elements/1.1/"
   xmlns:cc="http://creativecommons.org/ns#"
   xmlns:rdf="http://www.w3.org/1999/02/22-rdf-syntax-ns#"
   xmlns:svg="http://www.w3.org/2000/svg"
   xmlns="http://www.w3.org/2000/svg"
   xmlns:xlink="http://www.w3.org/1999/xlink"
   xmlns:sodipodi="http://sodipodi.sourceforge.net/DTD/sodipodi-0.dtd"
   xmlns:inkscape="http://www.inkscape.org/namespaces/inkscape"
   width="128"
   height="128"
   viewBox="0 0 33.866666 33.866668"
   version="1.1"
   id="svg8"
   inkscape:version="1.0.1 (3bc2e813f5, 2020-09-07)"
   sodipodi:docname="inktools.svg">
  <defs
     id="defs2">
    <linearGradient
       inkscape:collect="always"
       id="linearGradient908">
      <stop
         style="stop-color:#fefefe;stop-opacity:1"
         offset="0"
         id="stop904" />
      <stop
         style="stop-color:#7f7f7c;stop-opacity:0"
         offset="1"
         id="stop906" />
    </linearGradient>
    <radialGradient
       inkscape:collect="always"
       xlink:href="#linearGradient908"
       id="radialGradient910"
       cx="18.121548"
       cy="5.1440749"
       fx="18.121548"
       fy="5.1440749"
       r="3.8364584"
       gradientTransform="matrix(1.0766649,0.03626962,-0.05748817,1.706538,-1.4696468,-3.9194853)"
       gradientUnits="userSpaceOnUse" />
  </defs>
  <sodipodi:namedview
     id="base"
     pagecolor="#ffffff"
     bordercolor="#666666"
     borderopacity="1.0"
     inkscape:pageopacity="0.0"
     inkscape:pageshadow="2"
     inkscape:zoom="6.8671875"
     inkscape:cx="64"
     inkscape:cy="64"
     inkscape:document-units="px"
     inkscape:current-layer="layer1"
     inkscape:document-rotation="0"
     showgrid="true"
     units="px"
     inkscape:snap-bbox="true"
     inkscape:bbox-paths="true"
     inkscape:bbox-nodes="true"
     inkscape:snap-bbox-edge-midpoints="true"
     inkscape:snap-bbox-midpoints="true"
     inkscape:snap-object-midpoints="true"
     inkscape:snap-center="true"
     inkscape:window-width="1920"
     inkscape:window-height="1051"
     inkscape:window-x="1920"
     inkscape:window-y="29"
     inkscape:window-maximized="1">
    <inkscape:grid
       type="xygrid"
       id="grid833"
       empspacing="8" />
  </sodipodi:namedview>
  <metadata
     id="metadata5">
    <rdf:RDF>
      <cc:Work
         rdf:about="">
        <dc:format>image/svg+xml</dc:format>
        <dc:type
           rdf:resource="http://purl.org/dc/dcmitype/StillImage" />
        <dc:title></dc:title>
      </cc:Work>
    </rdf:RDF>
  </metadata>
  <g
     inkscape:label="Слой 1"
     inkscape:groupmode="layer"
     id="layer1">
    <path
       id="path846"
       style="fill:#03006e;fill-opacity:1;stroke:none;stroke-width:1.05833;stroke-linecap:round;stroke-miterlimit:4;stroke-dasharray:none;stroke-opacity:1;paint-order:markers stroke fill"
       d="m 3.7020998,15.345833 a 14.816668,10.583335 0 0 0 -1.5854331,4.7625 14.816668,10.583335 0 0 0 6.6052818,8.809281 C 8.5693837,29.010264 8.4666669,29.17649 8.4666669,29.36875 v 0.79375 c 0,0.293158 0.2360081,0.529166 0.5291667,0.529166 h 7.8822064 0.05529 7.9375 c 0.293158,0 0.529167,-0.236008 0.529167,-0.529166 v -0.79375 c 0,-0.19226 -0.102717,-0.358487 -0.255282,-0.451136 a 14.816668,10.583335 0 0 0 6.605282,-8.809281 14.816668,10.583335 0 0 0 -1.585434,-4.7625 z" />
    <ellipse
       style="opacity:1;fill:#0700c1;fill-opacity:1;fill-rule:nonzero;stroke:none;stroke-width:0.995037;stroke-linecap:round;stroke-linejoin:round;stroke-miterlimit:4;stroke-dasharray:none;stroke-dashoffset:0;stroke-opacity:1;paint-order:stroke fill markers"
       id="path914"
       cx="16.933332"
       cy="15.345835"
       rx="13.229167"
       ry="1.1906251" />
    <ellipse
       style="opacity:1;fill:url(#radialGradient910);fill-opacity:1;fill-rule:nonzero;stroke:none;stroke-width:1;stroke-linecap:round;stroke-linejoin:round;stroke-miterlimit:4;stroke-dasharray:none;stroke-dashoffset:0;stroke-opacity:1;paint-order:stroke fill markers"
       id="path902"
       cx="17.745464"
       cy="5.5163345"
       rx="3.8364584"
       ry="6.8791666"
       transform="rotate(44.707177)" />
    <path
       id="ellipse924"
       style="opacity:1;fill:none;fill-opacity:1;fill-rule:nonzero;stroke:#404040;stroke-width:0.529167;stroke-linecap:round;stroke-linejoin:round;stroke-miterlimit:4;stroke-dasharray:none;stroke-dashoffset:0;stroke-opacity:1;paint-order:stroke fill markers"
       d="m 10.583335,10.583332 c 0,-0.5845005 2.842991,-1.0583325 6.349999,-1.0583325 3.507008,-10e-8 6.35,0.4738319 6.35,1.0583325"
       sodipodi:nodetypes="csc" />
    <ellipse
       style="opacity:1;fill:#02001f;fill-opacity:1;fill-rule:nonzero;stroke:none;stroke-width:0.796029;stroke-linecap:round;stroke-linejoin:round;stroke-miterlimit:4;stroke-dasharray:none;stroke-dashoffset:0;stroke-opacity:1;paint-order:stroke fill markers"
       id="ellipse935"
       cx="16.933332"
       cy="30.427084"
       rx="8.4666672"
       ry="1.1906251" />
    <path
       id="ellipse916"
       style="opacity:1;fill:#0101c0;fill-opacity:0.195013;fill-rule:nonzero;stroke:#000000;stroke-width:0.529167;stroke-linecap:round;stroke-linejoin:round;stroke-miterlimit:4;stroke-dasharray:none;stroke-dashoffset:0;stroke-opacity:1;paint-order:markers fill stroke"
       d="m 10.583334,7.4083334 v 3.1377926 a 14.816668,10.583335 0 0 0 -6.8812342,4.799707 14.816668,10.583335 0 0 0 -0.079582,0.114205 14.816668,10.583335 0 0 0 -0.077514,0.115238 14.816668,10.583335 0 0 0 -0.011886,0.01757 14.816668,10.583335 0 0 0 -0.063562,0.09767 14.816668,10.583335 0 0 0 -0.1452108,0.233061 14.816668,10.583335 0 0 0 -0.011369,0.0186 14.816668,10.583335 0 0 0 -0.058394,0.09922 14.816668,10.583335 0 0 0 -0.067179,0.117823 14.816668,10.583335 0 0 0 -0.066146,0.118856 14.816668,10.583335 0 0 0 -0.063045,0.117822 14.816668,10.583335 0 0 0 -5.167e-4,0.0015 14.816668,10.583335 0 0 0 -0.00982,0.01809 14.816668,10.583335 0 0 0 -0.051676,0.101286 14.816668,10.583335 0 0 0 -0.1173057,0.241329 14.816668,10.583335 0 0 0 -0.00878,0.0186 14.816668,10.583335 0 0 0 -0.046509,0.10232 14.816668,10.583335 0 0 0 -0.00878,0.01912 14.816668,10.583335 0 0 0 -0.044959,0.102836 14.816668,10.583335 0 0 0 -0.051159,0.121956 14.816668,10.583335 0 0 0 -0.049609,0.122474 14.816668,10.583335 0 0 0 -0.047026,0.122989 14.816668,10.583335 0 0 0 -0.03514,0.0956 14.816668,10.583335 0 0 0 -0.014469,0.04031 14.816668,10.583335 0 0 0 -0.00258,0.0067 14.816668,10.583335 0 0 0 -0.036174,0.104903 14.816668,10.583335 0 0 0 -0.027388,0.08113 14.816668,10.583335 0 0 0 -0.018604,0.05684 14.816668,10.583335 0 0 0 -0.00155,0.0057 14.816668,10.583335 0 0 0 -0.032556,0.104903 14.816668,10.583335 0 0 0 -0.03669,0.125057 14.816668,10.583335 0 0 0 -0.034623,0.125057 14.816668,10.583335 0 0 0 -0.032556,0.125574 14.816668,10.583335 0 0 0 -0.029456,0.122473 14.816668,10.583335 0 0 0 -0.00155,0.0047 14.816668,10.583335 0 0 0 -0.00413,0.01809 14.816668,10.583335 0 0 0 -0.050126,0.232545 14.816668,10.583335 0 0 0 -0.020154,0.105419 14.816668,10.583335 0 0 0 -0.00517,0.02584 14.816668,10.583335 0 0 0 -0.00258,0.01447 14.816668,10.583335 0 0 0 -0.018087,0.10697 14.816668,10.583335 0 0 0 -0.019637,0.127124 14.816668,10.583335 0 0 0 -0.011886,0.0832 14.816668,10.583335 0 0 0 -0.00775,0.05581 14.816668,10.583335 0 0 0 -0.00465,0.03876 14.816668,10.583335 0 0 0 -0.011369,0.09612 14.816668,10.583335 0 0 0 -0.012919,0.127124 14.816668,10.583335 0 0 0 -0.0031,0.03721 14.816668,10.583335 0 0 0 -0.015503,0.197404 14.816668,10.583335 0 0 0 -0.00413,0.07183 14.816668,10.583335 0 0 0 -0.00362,0.07545 14.816668,10.583335 0 0 0 -0.00413,0.120406 14.816668,10.583335 0 0 0 -0.00103,0.03669 14.816668,10.583335 0 0 0 -0.00155,0.09819 14.816668,10.583335 0 0 0 -5.168e-4,0.07235 14.816668,10.583335 0 0 0 0.1302246,1.399398 14.816668,10.583335 0 0 0 0.05116,0.252181 14.816668,10.583335 0 0 0 0.028939,0.12609 14.816668,10.583335 0 0 0 0.064595,0.251148 14.816668,10.583335 0 0 0 1.098641,2.42104 14.816668,10.583335 0 0 0 0.075965,0.115239 14.816668,10.583335 0 0 0 0.4966105,0.678511 14.816668,10.583335 0 0 0 0.1808673,0.219626 14.816668,10.583335 0 0 0 1.9440676,1.823661 14.816668,10.583335 0 0 0 5.168e-4,0 14.816668,10.583335 0 0 0 2.4479126,1.481046 14.816668,10.583335 0 0 0 0.085783,0.04134 c -0.1525648,0.09265 -0.2552816,0.258876 -0.2552816,0.451136 v 0.79375 c 0,0.0584 0.01162,0.113429 0.028939,0.16588 a 8.4666674,1.1906251 0 0 0 -0.028939,0.0987 8.4666674,1.1906251 0 0 0 8.4666674,1.190625 8.4666674,1.1906251 0 0 0 8.466667,-1.190625 8.4666674,1.1906251 0 0 0 -0.02894,-0.09818 c 0.01742,-0.05259 0.02894,-0.107823 0.02894,-0.166399 v -0.79375 c 0,-0.19226 -0.102717,-0.358487 -0.255282,-0.451136 a 14.816668,10.583335 0 0 0 0.0098,-0.0047 14.816668,10.583335 0 0 0 0.130224,-0.06304 14.816668,10.583335 0 0 0 0.0083,-0.0036 14.816668,10.583335 0 0 0 0.0041,-0.0021 14.816668,10.583335 0 0 0 0.142627,-0.0708 14.816668,10.583335 0 0 0 0.134358,-0.06821 14.816668,10.583335 0 0 0 0.01137,-0.0057 14.816668,10.583335 0 0 0 0.05736,-0.02945 14.816668,10.583335 0 0 0 0.08682,-0.04548 14.816668,10.583335 0 0 0 0.01292,-0.0067 14.816668,10.583335 0 0 0 0.115756,-0.06201 14.816668,10.583335 0 0 0 0.01447,-0.0077 14.816668,10.583335 0 0 0 0.05633,-0.03049 14.816668,10.583335 0 0 0 0.08527,-0.04702 14.816668,10.583335 0 0 0 0.116271,-0.06511 14.816668,10.583335 0 0 0 0.02429,-0.01344 14.816668,10.583335 0 0 0 0.05529,-0.03152 14.816668,10.583335 0 0 0 0.08372,-0.04857 14.816668,10.583335 0 0 0 0.113171,-0.06666 14.816668,10.583335 0 0 0 0.0248,-0.01447 14.816668,10.583335 0 0 0 0.05426,-0.03256 14.816668,10.583335 0 0 0 0.08217,-0.05013 14.816668,10.583335 0 0 0 0.11317,-0.06976 14.816668,10.583335 0 0 0 0.0217,-0.01344 14.816668,10.583335 0 0 0 0.05323,-0.03359 14.816668,10.583335 0 0 0 0.0801,-0.05116 14.816668,10.583335 0 0 0 0.05271,-0.03411 14.816668,10.583335 0 0 0 0.01137,-0.0072 14.816668,10.583335 0 0 0 0.101801,-0.06718 14.816668,10.583335 0 0 0 0.0186,-0.01188 14.816668,10.583335 0 0 0 0.07855,-0.05271 14.816668,10.583335 0 0 0 0.128156,-0.08733 14.816668,10.583335 0 0 0 0.001,-5.18e-4 14.816668,10.583335 0 0 0 5.16e-4,-5.16e-4 14.816668,10.583335 0 0 0 0.127124,-0.08888 14.816668,10.583335 0 0 0 0.115755,-0.08216 14.816668,10.583335 0 0 0 0.01033,-0.0078 14.816668,10.583335 0 0 0 0.0052,-0.0036 14.816668,10.583335 0 0 0 0.119375,-0.08785 14.816668,10.583335 0 0 0 0.09353,-0.07028 14.816668,10.583335 0 0 0 0.02997,-0.02222 14.816668,10.583335 0 0 0 0.04858,-0.03721 14.816668,10.583335 0 0 0 0.07286,-0.05633 14.816668,10.583335 0 0 0 0.0021,-0.0015 14.816668,10.583335 0 0 0 0.108522,-0.08578 14.816668,10.583335 0 0 0 0.0093,-0.0072 14.816668,10.583335 0 0 0 0.04703,-0.03773 14.816668,10.583335 0 0 0 0.07131,-0.05788 14.816668,10.583335 0 0 0 0.04651,-0.03824 14.816668,10.583335 0 0 0 0.07028,-0.05839 14.816668,10.583335 0 0 0 10e-4,-0.001 14.816668,10.583335 0 0 0 0.09973,-0.08423 14.816668,10.583335 0 0 0 0.01395,-0.01189 14.816668,10.583335 0 0 0 0.04547,-0.03927 14.816668,10.583335 0 0 0 0.06821,-0.05943 14.816668,10.583335 0 0 0 0.04444,-0.03927 14.816668,10.583335 0 0 0 0.06718,-0.06046 14.816668,10.583335 0 0 0 0.04393,-0.03979 14.816668,10.583335 0 0 0 0.06615,-0.06046 14.816668,10.583335 0 0 0 0.04341,-0.04031 14.816668,10.583335 0 0 0 0.01499,-0.01395 14.816668,10.583335 0 0 0 0.0925,-0.08785 14.816668,10.583335 0 0 0 0.105936,-0.102836 14.816668,10.583335 0 0 0 0.06304,-0.06201 14.816668,10.583335 0 0 0 0.04134,-0.04134 14.816668,10.583335 0 0 0 0.06201,-0.06304 14.816668,10.583335 0 0 0 0.04031,-0.04134 14.816668,10.583335 0 0 0 0.06098,-0.06356 14.816668,10.583335 0 0 0 0.03979,-0.04186 14.816668,10.583335 0 0 0 0.05994,-0.06408 14.816668,10.583335 0 0 0 0.01085,-0.01137 14.816668,10.583335 0 0 0 0.0832,-0.09147 14.816668,10.583335 0 0 0 0.0036,-0.0041 14.816668,10.583335 0 0 0 0.03824,-0.04237 14.816668,10.583335 0 0 0 0.05788,-0.06511 14.816668,10.583335 0 0 0 0.03772,-0.04289 14.816668,10.583335 0 0 0 0.05633,-0.06511 14.816668,10.583335 0 0 0 0.0098,-0.01188 14.816668,10.583335 0 0 0 0.07648,-0.09043 14.816668,10.583335 0 0 0 0.0062,-0.0072 14.816668,10.583335 0 0 0 0.0041,-0.0052 14.816668,10.583335 0 0 0 0.0863,-0.104903 14.816668,10.583335 0 0 0 0.08837,-0.110588 14.816668,10.583335 0 0 0 0.08682,-0.111621 14.816668,10.583335 0 0 0 0.03411,-0.04444 14.816668,10.583335 0 0 0 0.01861,-0.02481 14.816668,10.583335 0 0 0 0.05581,-0.07441 14.816668,10.583335 0 0 0 0.0098,-0.01343 14.816668,10.583335 0 0 0 0.04961,-0.06821 14.816668,10.583335 0 0 0 0.0047,-0.0067 14.816668,10.583335 0 0 0 0.0646,-0.09043 14.816668,10.583335 0 0 0 0.01188,-0.01654 14.816668,10.583335 0 0 0 0.03152,-0.04496 14.816668,10.583335 0 0 0 0.04754,-0.06925 14.816668,10.583335 0 0 0 0.0067,-0.0098 14.816668,10.583335 0 0 0 0.06718,-0.100252 14.816668,10.583335 0 0 0 0.0031,-0.0047 14.816668,10.583335 0 0 0 0.0021,-0.0031 14.816668,10.583335 0 0 0 0.05633,-0.0863 14.816668,10.583335 0 0 0 0.01705,-0.02636 14.816668,10.583335 0 0 0 0.02946,-0.04651 14.816668,10.583335 0 0 0 0.0072,-0.01189 14.816668,10.583335 0 0 0 0.05891,-0.09405 14.816668,10.583335 0 0 0 0.0062,-0.01034 14.816668,10.583335 0 0 0 0.04289,-0.0708 14.816668,10.583335 0 0 0 0.0072,-0.0124 14.816668,10.583335 0 0 0 0.0584,-0.0987 14.816668,10.583335 0 0 0 0.0036,-0.0062 14.816668,10.583335 0 0 0 0.0021,-0.0036 14.816668,10.583335 0 0 0 0.04599,-0.08061 14.816668,10.583335 0 0 0 0.04186,-0.07441 14.816668,10.583335 0 0 0 0.0036,-0.0067 14.816668,10.583335 0 0 0 0.03927,-0.07183 14.816668,10.583335 0 0 0 0.02532,-0.04703 14.816668,10.583335 0 0 0 0.03824,-0.07235 14.816668,10.583335 0 0 0 0.02429,-0.04702 14.816668,10.583335 0 0 0 0.03669,-0.07235 14.816668,10.583335 0 0 0 0.02377,-0.04806 14.816668,10.583335 0 0 0 0.03566,-0.07235 14.816668,10.583335 0 0 0 0.0083,-0.01757 14.816668,10.583335 0 0 0 0.03979,-0.08372 14.816668,10.583335 0 0 0 0.0093,-0.01964 14.816668,10.583335 0 0 0 0.02222,-0.04806 14.816668,10.583335 0 0 0 0.03307,-0.07338 14.816668,10.583335 0 0 0 0.02118,-0.04806 14.816668,10.583335 0 0 0 0.03204,-0.0739 14.816668,10.583335 0 0 0 0.0031,-0.0078 14.816668,10.583335 0 0 0 0.03824,-0.09043 14.816668,10.583335 0 0 0 0.0098,-0.02377 14.816668,10.583335 0 0 0 0.0077,-0.01912 14.816668,10.583335 0 0 0 0.03669,-0.0925 14.816668,10.583335 0 0 0 0.0041,-0.01085 14.816668,10.583335 0 0 0 0.0026,-0.0062 14.816668,10.583335 0 0 0 0.04031,-0.105937 14.816668,10.583335 0 0 0 0.0041,-0.01137 14.816668,10.583335 0 0 0 0.0031,-0.0078 14.816668,10.583335 0 0 0 0.04031,-0.112138 14.816668,10.583335 0 0 0 0.0016,-0.0036 14.816668,10.583335 0 0 0 5.16e-4,-0.0021 14.816668,10.583335 0 0 0 0.03514,-0.100252 14.816668,10.583335 0 0 0 0.0072,-0.02119 14.816668,10.583335 0 0 0 0.01654,-0.04961 14.816668,10.583335 0 0 0 0.02429,-0.07493 14.816668,10.583335 0 0 0 0.0155,-0.04909 14.816668,10.583335 0 0 0 0.0072,-0.02377 14.816668,10.583335 0 0 0 0.02894,-0.09612 14.816668,10.583335 0 0 0 0.0015,-0.0052 14.816668,10.583335 0 0 0 0.02171,-0.07493 14.816668,10.583335 0 0 0 0.01395,-0.04961 14.816668,10.583335 0 0 0 0.0088,-0.03307 14.816668,10.583335 0 0 0 0.01964,-0.0739 14.816668,10.583335 0 0 0 0.0052,-0.0186 14.816668,10.583335 0 0 0 0.01912,-0.07545 14.816668,10.583335 0 0 0 0.0124,-0.05013 14.816668,10.583335 0 0 0 0.01809,-0.07597 14.816668,10.583335 0 0 0 0.0047,-0.02015 14.816668,10.583335 0 0 0 0.01705,-0.077 14.816668,10.583335 0 0 0 0.0062,-0.02894 14.816668,10.583335 0 0 0 0.01033,-0.04961 14.816668,10.583335 0 0 0 0.0155,-0.07648 14.816668,10.583335 0 0 0 0.0036,-0.01809 14.816668,10.583335 0 0 0 0.01344,-0.07338 14.816668,10.583335 0 0 0 0.01292,-0.06976 14.816668,10.583335 0 0 0 0.0026,-0.0155 14.816668,10.583335 0 0 0 0.01292,-0.07648 14.816668,10.583335 0 0 0 0.0015,-0.0098 14.816668,10.583335 0 0 0 0.01551,-0.100769 14.816668,10.583335 0 0 0 0.0026,-0.01602 14.816668,10.583335 0 0 0 0.0016,-0.01034 14.816668,10.583335 0 0 0 0.0155,-0.116788 14.816668,10.583335 0 0 0 0.0124,-0.09974 14.816668,10.583335 0 0 0 0.0072,-0.06873 14.816668,10.583335 0 0 0 0.001,-0.0088 14.816668,10.583335 0 0 0 0.0078,-0.077 14.816668,10.583335 0 0 0 0.0021,-0.02274 14.816668,10.583335 0 0 0 0.0088,-0.104387 14.816668,10.583335 0 0 0 0.0088,-0.12764 14.816668,10.583335 0 0 0 0.0057,-0.104387 14.816668,10.583335 0 0 0 0.001,-0.02325 14.816668,10.583335 0 0 0 0.0021,-0.05064 14.816668,10.583335 0 0 0 5.16e-4,-0.02635 14.816668,10.583335 0 0 0 0.0026,-0.0832 14.816668,10.583335 0 0 0 5.16e-4,-0.01757 14.816668,10.583335 0 0 0 0.001,-0.077 14.816668,10.583335 0 0 0 5.16e-4,-0.05064 14.816668,10.583335 0 0 0 0,-0.02325 14.816668,10.583335 0 0 0 -0.130225,-1.399398 14.816668,10.583335 0 0 0 -0.144693,-0.629419 14.816668,10.583335 0 0 0 -0.03514,-0.125057 14.816668,10.583335 0 0 0 -0.077,-0.24908 14.816668,10.583335 0 0 0 -0.08527,-0.24753 14.816668,10.583335 0 0 0 -0.09353,-0.246497 14.816668,10.583335 0 0 0 -0.155959,-0.365952 14.816668,10.583335 0 0 0 -0.114205,-0.241846 14.816668,10.583335 0 0 0 -0.18655,-0.358634 14.816668,10.583335 0 0 0 -0.204639,-0.353984 14.816668,10.583335 0 0 0 -0.146246,-0.232544 14.816668,10.583335 0 0 0 -0.211873,-0.312642 14.816668,10.583335 0 0 0 -6.881233,-4.799707 V 7.4083334 Z" />
    <path
       id="ellipse928"
       style="opacity:1;fill:none;fill-opacity:1;fill-rule:nonzero;stroke:#000000;stroke-width:0.529167;stroke-linecap:round;stroke-linejoin:round;stroke-miterlimit:4;stroke-dasharray:none;stroke-dashoffset:0;stroke-opacity:1;paint-order:stroke fill markers"
       d="m 25.135416,28.919605 c 0,0.657564 -3.672198,1.190625 -8.202084,1.190625 -4.529885,0 -8.2020827,-0.533061 -8.2020831,-1.190625"
       sodipodi:nodetypes="csc" />
    <path
       id="path944"
       style="opacity:1;fill:none;fill-opacity:1;fill-rule:nonzero;stroke:#000000;stroke-width:0.529167;stroke-linecap:round;stroke-linejoin:round;stroke-miterlimit:4;stroke-dasharray:none;stroke-dashoffset:0;stroke-opacity:1;paint-order:stroke fill markers"
       d="m 23.283334,10.583332 c 0,0.584501 -2.842992,1.058333 -6.35,1.058333 -3.507008,0 -6.349999,-0.473832 -6.349999,-1.058333"
       sodipodi:nodetypes="csc" />
    <path
       id="ellipse922"
       style="opacity:1;fill:#030052;fill-opacity:1;fill-rule:nonzero;stroke:#000000;stroke-width:0.529167;stroke-linecap:round;stroke-linejoin:round;stroke-miterlimit:4;stroke-dasharray:none;stroke-dashoffset:0;stroke-opacity:1;paint-order:stroke fill markers"
       d="m 9.2604169,3.1749999 v 4.733102 a 7.5406252,1.3523148 0 0 0 7.5406251,1.3523148 7.5406252,1.3523148 0 0 0 7.540625,-1.3523148 7.5406252,1.3523148 0 0 0 0,-0.0066 v -4.726499 z" />
    <ellipse
       style="opacity:1;fill:#0700c1;fill-opacity:1;fill-rule:nonzero;stroke:#000000;stroke-width:0.529167;stroke-linecap:round;stroke-linejoin:round;stroke-miterlimit:4;stroke-dasharray:none;stroke-dashoffset:0;stroke-opacity:1;paint-order:stroke fill markers"
       id="ellipse946"
       cx="16.801043"
       cy="3.1750016"
       rx="7.5406251"
       ry="1.0583333" />
  </g>
</svg>
