<?xml version="1.0" encoding="UTF-8" standalone="no"?>
<svg
   xmlns:dc="http://purl.org/dc/elements/1.1/"
   xmlns:cc="http://creativecommons.org/ns#"
   xmlns:rdf="http://www.w3.org/1999/02/22-rdf-syntax-ns#"
   xmlns:svg="http://www.w3.org/2000/svg"
   xmlns="http://www.w3.org/2000/svg"
   xmlns:sodipodi="http://sodipodi.sourceforge.net/DTD/sodipodi-0.dtd"
   xmlns:inkscape="http://www.inkscape.org/namespaces/inkscape"
   width="16"
   height="16"
   viewBox="0 0 4.2333332 4.2333335"
   version="1.1"
   id="svg8"
   inkscape:version="1.0.1 (0767f8302a, 2020-10-17)"
   sodipodi:docname="nocolor.svg">
  <defs
     id="defs2">
    <rect
       x="1.3229167"
       y="0.79375002"
       width="1.5875"
       height="2.6458334"
       id="rect867" />
  </defs>
  <sodipodi:namedview
     id="base"
     pagecolor="#ffffff"
     bordercolor="#666666"
     borderopacity="1.0"
     inkscape:pageopacity="0.0"
     inkscape:pageshadow="2"
     inkscape:zoom="71.4375"
     inkscape:cx="8"
     inkscape:cy="8"
     inkscape:document-units="px"
     inkscape:current-layer="layer1"
     inkscape:document-rotation="0"
     showgrid="true"
     units="px"
     inkscape:snap-object-midpoints="true"
     inkscape:snap-center="true"
     inkscape:window-width="2560"
     inkscape:window-height="1405"
     inkscape:window-x="0"
     inkscape:window-y="35"
     inkscape:window-maximized="1">
    <inkscape:grid
       type="xygrid"
       id="grid833"
       empspacing="2"
       spacingx="0.13229167"
       spacingy="0.13229167" />
  </sodipodi:namedview>
  <metadata
     id="metadata5">
    <rdf:RDF>
      <cc:Work
         rdf:about="">
        <dc:format>image/svg+xml</dc:format>
        <dc:type
           rdf:resource="http://purl.org/dc/dcmitype/StillImage" />
        <dc:title />
      </cc:Work>
    </rdf:RDF>
  </metadata>
  <g
     inkscape:label="Слой 1"
     inkscape:groupmode="layer"
     id="layer1">
    <rect
       style="fill:#cbcbcb;fill-opacity:1;stroke:none;stroke-width:0.0264583;stroke-linecap:round;stroke-miterlimit:4;stroke-dasharray:none;paint-order:markers stroke fill"
       id="rect845"
       width="3.175"
       height="3.175"
       x="0.52916664"
       y="0.52916664"
       ry="4.1148834e-08" />
    <path
       id="rect835"
       style="fill:#dfdfdf;fill-opacity:1;stroke:none;stroke-width:0.0999999;stroke-linecap:round;stroke-miterlimit:4;stroke-dasharray:none;paint-order:markers stroke fill"
       d="M 2 1 C 1.446 1 1 1.446 1 2 L 1 14 C 1 14.554 1.446 15 2 15 L 14 15 C 14.554 15 15 14.554 15 14 L 15 2 C 15 1.446 14.554 1 14 1 L 2 1 z M 2.5 2 L 13.5 2 C 13.777002 2 14 2.2230002 14 2.5 L 14 13.5 C 14 13.777002 13.777 14 13.5 14 L 2.5 14 C 2.2229999 14 2 13.777 2 13.5 L 2 2.5 C 2 2.2229999 2.2230002 2 2.5 2 z "
       transform="scale(0.26458333)" />
    <g
       aria-label="?"
       transform="matrix(2.2270744,0,0,2.2270744,-2.5948001,-1.5575236)"
       id="text865"
       style="font-size:1.5875px;line-height:125%;font-family:Iosevka;-inkscape-font-specification:Iosevka;text-align:center;writing-mode:lr-tb;text-anchor:middle;white-space:pre;shape-inside:url(#rect867);fill:#808080;fill-opacity:1;stroke:none;stroke-width:0.0264583;stroke-linecap:round;stroke-miterlimit:4;stroke-dasharray:none;paint-order:markers stroke fill">
      <path
         d="m 2.0527109,1.8823522 h 0.127 q 0,-0.04445 0.00794,-0.087312 0.00794,-0.04445 0.03175,-0.080963 0.0254,-0.0381 0.053975,-0.073025 v 0 q 0.036512,-0.046038 0.06985,-0.093662 0.033338,-0.047625 0.053975,-0.1031875 0.020637,-0.055563 0.020637,-0.1143 0,-0.05715 -0.022225,-0.1127125 -0.020637,-0.055562 -0.065087,-0.093662 -0.04445,-0.039688 -0.1016,-0.053975 -0.055563,-0.015875 -0.1143,-0.015875 -0.05715,0 -0.1127125,0.014288 -0.055562,0.014288 -0.1016,0.052387 -0.04445,0.036513 -0.066675,0.090488 -0.022225,0.052388 -0.022225,0.1095375 v 0.00635 h 0.127 v -0.00318 q 0,-0.04445 0.023813,-0.084137 0.023813,-0.039687 0.065087,-0.055562 0.042863,-0.015875 0.087313,-0.015875 0.04445,0 0.087312,0.017463 0.04445,0.015875 0.066675,0.05715 0.022225,0.041275 0.022225,0.085725 0,0.052388 -0.023813,0.1000125 -0.022225,0.047625 -0.055562,0.087312 -0.03175,0.039688 -0.065088,0.080963 -0.03175,0.039688 -0.055562,0.085725 -0.023813,0.046037 -0.03175,0.098425 -0.00635,0.0508 -0.00635,0.1016 z m 0.0635,0.3635375 q 0.030162,0 0.058737,-0.0127 0.028575,-0.0127 0.041275,-0.041275 0.0127,-0.028575 0.0127,-0.058737 0,-0.030162 -0.0127,-0.05715 -0.0127,-0.028575 -0.041275,-0.041275 -0.028575,-0.0127 -0.058737,-0.0127 -0.030162,0 -0.058737,0.0127 -0.026988,0.0127 -0.039688,0.041275 -0.0127,0.026988 -0.0127,0.05715 0,0.030162 0.0127,0.058737 0.0127,0.028575 0.039688,0.041275 0.028575,0.0127 0.058737,0.0127 z"
         style="fill:#000000;fill-opacity:1"
         id="path871" />
    </g>
  </g>
</svg>
